<svg shape-rendering="geometricPrecision" xmlns="http://www.w3.org/2000/svg" width="2048" height="2048" fill="none" viewBox="0 0 2048 2048"><g clip-path="url(#a)"><path fill="#fefefe" d="M0 0h2048v2048H0z"/><path fill="#0983c1" d="M371 831v62l-24 3c-37.66 7.97-72.43 30.49-93.67 62.87-20.08 32.17-28.62 71.51-20.36 109.03l1.03 4.1.59 2.36c9.01 35.45 30.76 66.16 62.18 85.34a160 160 0 0 0 33.67 14.8l2.29.7c12.03 3.41 24.31 4.22 36.77 4.18l2.1-.01c39.08-.18 69.36-16.35 98.4-41.37l4.31-3.69L477 1132l1.9 1.94c4.44 4.48 8.9 8.84 13.7 12.94 4.1 3.62 8.06 7.39 12.03 11.15a112 112 0 0 0 8.21 7.16c4.15 3.48 4.84 8.17 5.85 13.31-1.58 8.04-10.66 13.24-16.75 18.13a294 294 0 0 0-6.13 5.06l-1.61 1.36-4.47 3.79c-6.54 5.18-6.54 5.18-11.6 5.09-4.28-.75-7.64-2.48-11.32-4.74l-1.79-1.04a52 52 0 0 1-7.7-5.47c-2.11-1.94-2.11-1.94-4.24-1.39-2.7.92-5.24 2.13-7.82 3.34-9.8 4.58-19.7 7.9-30.11 10.77a266 266 0 0 0-5.5 1.6 79 79 0 0 1-17.65 3l-.33 2.53a60 60 0 0 1-3.42 10.97l-.73 1.93c-1.84 4.66-3.75 8.21-7.52 11.57-3.11.79-6.06.66-9.25.5l-2.74-.08q-4.5-.16-9.01-.42l-3.35-.13q-5.07-.2-10.15-.49l-3.24-.14c-8.35-.59-8.35-.59-11.34-3.9a38 38 0 0 1-4.1-10.15l-.93-3.46c-.89-3.73-.89-3.73-1.1-6.05A19 19 0 0 0 323 1214c-2.98-2.05-6.23-2.86-9.69-3.81a146 146 0 0 1-24.43-10.19l-2.93-1.55a126 126 0 0 1-17.64-11.32c-2.25-1.41-2.25-1.41-4.6-.55L261 1188q-4.12 1.85-8.25 3.63l-2.16.98c-5.2 2.23-9.92 3.28-15.59 2.39-2.16-1.25-2.16-1.25-3.62-3l-1.7-1.94L228 1188l-3.5-4-1.76-2.04a93 93 0 0 0-5.12-5.27c-2.99-2.97-5.8-6.06-8.56-9.25l-2.34-2.69c-2.07-3.31-2.26-4.91-1.72-8.75 1.14-2.71 1.14-2.71 2.69-5.37l1.64-2.88q2.77-4.57 5.88-8.9c1.1-2.6.5-4.14-.21-6.85-.98-2.18-.98-2.18-2.22-4.31l-1.37-2.48-1.47-2.65c-7.48-13.87-16.94-32.37-16.94-48.56l-2.81-.31c-8.82-1.29-19.3-3.38-25.19-10.69-.41-2.14-.41-2.14-.47-4.65l-.07-2.85-.03-3.08-.05-3.17-.05-6.65q-.05-5.08-.18-10.16l-.04-6.46-.1-3.06c.07-6.84.07-6.84 2.65-9.87a32 32 0 0 1 11.5-5.95l2.65-.76 2.69-.71 2.78-.79q3.36-.94 6.72-1.84l.63-3.05c3.77-17.52 9.62-40.1 21.2-54.17 1.42-1.77 1.42-1.77 1.03-4.24a31 31 0 0 0-3.61-7.23c-7.38-11.95-7.38-11.95-9.06-18.43 1.11-3.94 3.38-5.86 6.38-8.56 2.7-2.58 5.1-5.33 7.53-8.15 3.17-3.62 6.48-7.1 9.78-10.6l2.04-2.19c6-6.37 6-6.37 10.06-6.69 5.44.06 9.52 1.87 14.33 4.25l4.68 2.21 2.05 1c2.01.87 3.78 1.53 5.96 1.85a70 70 0 0 0 6.19-4.19C284.86 875.86 307.93 861 324 861l.08-2.2c.5-8.78 1.78-17.22 6.84-24.6 4.64-3.32 9-2.98 14.58-3.01l3.07-.08c7.48-.16 14.95-.11 22.43-.11"/><path fill="#0c86b8" d="m536 940 .81 1.98c2.59 5.76 5 9.3 10.32 12.77A28 28 0 0 1 552 959a160 160 0 0 1-17 17c-5.01 3.9-5.01 3.9-7.19 9.44q1.41 2.99 3 5.87c8.25 16.26 8.62 36.26 3.35 53.44a150 150 0 0 1-4.43 11.2c-.96 2.31-.96 2.31-.73 6.05a57 57 0 0 0 5.75 5.31l1.63 1.42c3.08 2.63 3.08 2.63 6.95 3.13 1.66-.75 1.66-.75 2.67-1.86 4-.4 5.87.2 8.97 2.71l2.2 1.76 2.33 1.91 7.28 5.83q4.32 3.45 8.72 6.79 11.27 8.67 22.49 17.43l5.24 4.07 4.82 3.75c3.04 2.73 5.6 5.14 6.48 9.21-.1 7.4-2.09 10.86-7.1 16.35-3.62 3.25-7.14 3.8-11.87 3.71-4.79-.97-8.15-4.12-11.86-7.15-2.63-2.12-5.34-4.14-8.03-6.18a707 707 0 0 1-18.15-14.17 631 631 0 0 0-7.74-6.08q-3.6-2.81-7.14-5.65-2.25-1.76-4.53-3.49l-2.49-1.99-2.14-1.67c-1.48-2.14-1.48-2.14-1.27-5.97.13-2.65.08-3.78-1.5-5.94a74 74 0 0 0-5.71-4.73l-2.02-1.62q-2.47-1.97-4.98-3.88l-1.58 1.18-4.09 3.04q-2.26 1.72-4.44 3.53c-10.23 8.39-21.17 12.36-33.89 15.25l-2.42.59c-19.55 3.13-38.38-2.57-54.53-13.61-2.45-1.9-4.76-3.88-7.05-5.98l-2.1-1.82c-14.35-13.21-20.7-32.53-22.15-51.47-.69-18.78 5.51-38.62 18.25-52.71l2.32-2.6c10.48-11.1 22.01-18.08 36.68-22.4l2.28-.74c16.6-4.66 35.63-.67 50.72 6.74a132 132 0 0 1 15 10l.76-1.77c1.39-2.5 2.91-4.04 5.01-5.98l2.25-2.1 2.36-2.15 4.58-4.25 2.06-1.9q2.1-1.97 4.1-4.08C534 940 534 940 536 940"/><path fill="#141e39" d="M1053 937h37l1 74 7-8c14.25-11.3 30.05-13.49 47.66-11.6 16.66 2.98 30.45 11.6 40.65 25.04 13.23 19.19 16.74 42.21 12.57 65-3.75 17.11-11.73 34.51-26.57 44.72-15.6 9.92-32.35 14.43-50.81 10.72-13.25-3.43-21.99-10.37-31.5-19.88l-1 17h-36z"/><path fill="#141f39" d="M1333.21 1004.39c13.82 12.04 19.72 25.96 23.79 43.61v28h-102c4.61 12.68 8.15 20.63 20 27 11.19 4.86 24.96 4.61 36.24.27 6.38-2.94 11.91-6.15 16.76-11.27 2.88 1.3 4.9 2.67 7.09 4.93l1.69 1.72 1.72 1.79c4.93 5.14 4.93 5.14 10.5 9.56-.62 5.34-4.42 8.67-8.32 11.95-17.5 13.37-37.04 17.93-58.68 16.05-20.36-2.74-37.96-12.03-51-28a100 100 0 0 1-8-14l-1.05-2.1c-8.18-18.96-6.44-41.79.74-60.59 6.96-17.1 20.36-29.93 37.21-37.12 23.68-9.48 52.74-7.86 73.31 8.2"/><path fill="#131e39" d="M725 937h37l1 113c11.77-11.75 11.77-11.75 23-24q1.96-2.03 4-4a123 123 0 0 0 7.38-7.88c3.51-4.09 7.32-7.86 11.19-11.63 2.55-2.45 2.55-2.45 4.45-5.6 1.67-2 2.58-2.8 5.13-3.42a82 82 0 0 1 7.96-.06l2.94.03q4.64.05 9.26.18l6.3.09q7.7.1 15.39.29c-6.2 8.43-6.2 8.43-9.66 12.04l-1.95 2.05-2.01 2.1-4.28 4.49-2.11 2.22a810 810 0 0 0-8.24 8.85l-1.44 1.56-5.9 6.43-4.85 5.26-1.46 1.6a93 93 0 0 1-7.01 6.96c-2.32 2.21-2.32 2.21-2.2 4.83 1.5 3.53 3.65 6.41 5.99 9.42l3.04 4.05 1.57 2.09c2.3 3.13 4.5 6.33 6.7 9.55l2.73 4 1.47 2.16q4.75 6.9 9.55 13.78l2.06 2.96q7.05 10.13 14.2 20.2l3.8 5.4 1.21 1.72c2.79 4.04 2.79 4.04 2.79 6.28q-8.85.6-17.71.88-3 .12-6.01.33c-16.1 1.09-16.1 1.09-21.32-2.69-3.69-3.74-6.36-8.02-8.89-12.59a72 72 0 0 0-4.41-6.76l-2.6-3.98-4.46-6.79c-3.43-5.15-6.97-10.22-10.5-15.3l-1.58-2.28-1.4-2.02C784 1081 784 1081 783 1078a87 87 0 0 0-12.13 11.88c-1.87 2.12-1.87 2.12-3.34 3.34-3.09 2.67-4.89 4.61-5.3 8.77q-.06 2.23-.03 4.47l-.05 2.13q-.05 3.89-.02 7.79L762 1134h-37z"/><path fill="#141f39" d="M1721 994h40l8.8 23.66 5.41 14.55c7.04 18.89 14.02 37.8 20.79 56.79 2.02-3.93 3.56-8 5.1-12.14l.93-2.5 3.03-8.17 1.05-2.83q6.43-17.28 12.69-34.63l1.19-3.27 5.69-15.84 1.06-2.95 1.96-5.49.88-2.43.76-2.13c.66-1.62.66-1.62 1.66-2.62q4.3-.13 8.63-.1h2.62l8.31.04 5.63.01 13.81.05a276 276 0 0 1-5.5 15.52l-1.47 3.72-3.29 8.31a10276 10276 0 0 1-36.09 89.92q-3.12 7.68-6.19 15.37c-19.82 49.55-19.82 49.55-39.46 58.16l-2.62 1.19c-12.77 4.36-31.57 3.51-43.65-2.28a71 71 0 0 1-4.73-2.91 75 75 0 0 1 2.85-10.74l1.08-3.23 1.13-3.34 1.15-3.4 2.79-8.29c2.62.48 4.88.95 7.32 2.04 6.15 2.21 14.76 2.07 21.04.3 5.81-3.49 9.46-11.18 11.64-17.34-.02-6.82-3.27-13.06-5.88-19.25l-2.26-5.47-2.35-5.64q-3.38-8.18-6.7-16.39-6.7-16.44-13.43-32.88l-1.01-2.45a6289 6289 0 0 0-12.17-29.46l-1.2-2.87-5.77-13.82-2.07-4.98-.98-2.31c-2.18-5.25-2.18-5.25-2.18-7.48"/><path fill="#152039" d="M881 994h38l.08 18.86.08 11.88q.08 9.42.11 18.83.03 7.6.1 15.19l.02 5.78c-.19 16.63-.19 16.63 6.86 31.34 7.16 5.68 7.16 5.68 15.75 8.12l2.14.19c8.85.44 18.15-2.26 24.86-8.19 5.43-7.65 7.14-13.22 7.2-22.53l.03-2.6.09-8.51.06-5.9.15-15.53.16-15.84L977 994h38v140h-35v-18h-2l-.56 2.06c-4.4 8.97-14.04 14.56-23.19 17.75-14.78 4.66-32.2 3.47-45.94-3.5-12.73-7.44-21.05-18.17-25.31-32.31-2.53-11.47-2.26-22.94-2.2-34.61l.01-6.2.05-16.19.04-16.58q.03-16.2.1-32.42"/><path fill="#141e38" d="m1462.31 990.69 3.27-.05c13.84-.01 26.38 4.78 36.58 14.33 6.93 7.63 10.4 16.12 12.84 26.03l.54 2.09c.66 4.16.59 8.26.57 12.47v2.9l-.01 9.47-.01 6.57-.02 17.27-.02 17.64-.05 34.59h-37l-.04-7.84q-.08-12.87-.2-25.72l-.11-15.59q-.03-7.53-.11-15.06l-.04-5.73q-.02-4.03-.07-8.05l.01-2.37c-.13-7.59-2.13-14.96-6.78-21.07-6.85-6.49-15.55-7.9-24.56-7.78-8.44.57-14.52 3.86-20.1 10.21-4.49 6.84-5.15 13.4-5.21 21.46l-.03 2.55-.08 8.29-.06 5.76-.15 15.15-.16 15.46-.31 30.33h-37V994h34v16h2l.83-1.82c4.65-8.64 16.64-13.11 25.34-16.36 5.4-1.15 10.64-1.15 16.14-1.13"/><path fill="#fbfefe" d="M495 973c12.81 9.44 22.27 23.14 25 39 1.6 17.55-1.13 33.4-12.04 47.66-11.36 13.29-26.58 20.99-44 22.63-15.64.47-29.76-5.05-41.64-15.1-11.1-10.49-17.97-24.45-18.79-39.8q-.04-2.85-.03-5.7l.01-3.04c.2-8.41 1.69-15.07 5.49-22.65l1.28-2.68c8.35-15.58 23.27-24.51 39.6-29.95 16.11-2.84 31.44 1.14 45.12 9.63"/><path fill="#16203a" d="M1559 958h37v35h36v32h-36c.06 11.51.06 11.51.16 23.02q.08 7.05.11 14.1.03 5.7.1 11.38l.02 4.33c.01 7.4.14 13.89 3.76 20.54.85 1.63.85 1.63.85 3.63 7.12 3.26 14.89 2.96 22.25.5l3.75-1.5q3.27 8.6 6.25 17.31l.85 2.42.79 2.32.72 2.08c.39 1.87.39 1.87-.61 4.87-1.97 1.32-1.97 1.32-4.5 2.56l-2.47 1.26c-12.62 4.92-29.61 5.71-42.41 1.12-11.62-5.47-18.93-13.6-23.74-25.47-3.45-9.72-3.15-19.91-3.08-30.08l.01-4.72.05-12.34.04-12.63q.03-12.35.1-24.7h-23v-31h23z"/><path fill="#131e38" d="M1662 937h37v197h-37z"/><path fill="#fcfcfd" d="M1144 1028a42 42 0 0 1 17.67 25.97c1.5 13.67.19 25.56-7.67 37.03a38.7 38.7 0 0 1-23 14c-11.08 1.05-20.39-1.98-29-9-7.61-7.07-11.86-17.39-12.34-27.71-.31-17.5-.31-17.5 4.34-25.29l1.21-2.31a36 36 0 0 1 19.18-15.89c9.99-2.22 20.58-1.86 29.61 3.2"/><path fill="#0c73c3" d="M257 1003c3.71.64 7.02 1.67 10.52 3.05l3.28 1.29 7.18 2.83 17.39 6.87 9.38 3.69 3.48 1.37q10.94 4.34 21.77 8.9v3l-2.55 1.41a1025 1025 0 0 0-26.32 15.21 3083 3083 0 0 1-31.9 18.77l-3.1 1.79-2.72 1.58A22 22 0 0 1 257 1075c-6.35-21.11-10.29-51.43 0-72"/><path fill="#0d8ab7" d="M332 1052a271 271 0 0 1-4.6 23.2l-.76 3.1-1.58 6.5-4.06 16.76-.8 3.3A2444 2444 0 0 0 312 1140c-10.25 0-19.52-10.52-26.47-17.43a120 120 0 0 1-16.65-21.57l-1.19-1.93c-2-3.38-2.69-5.04-2.69-9.07 2.46-1.89 2.46-1.89 5.89-3.83l1.85-1.07q2.97-1.69 5.95-3.35l5.78-3.3 3.86-2.19c5.27-3 10.43-6.15 15.58-9.34q7.32-4.53 14.71-8.92l2.93-1.77 2.8-1.67 2.5-1.49C329 1052 329 1052 332 1052"/><path fill="#0b67cc" d="M312 934a927 927 0 0 1 13.81 48.73 374 374 0 0 0 6.15 20.92c1.27 4.09 2.22 8.15 3.04 12.35a2131 2131 0 0 1-63.69-24.69l-2.3-.91c-2.02-.85-2.02-.85-5.01-2.4-1-3-1-3 .3-5.9q.99-1.75 2.01-3.48l1.1-1.88C275.12 963.96 295.29 934 312 934"/><path fill="#0c99a3" d="M343 1075a93 93 0 0 1 7.29 10.11l3.77 6.08 2.02 3.25a2696 2696 0 0 1 24.7 40.55 351 351 0 0 0 10.11 16.01c1.11 2 1.11 2 1.11 5-7 1.11-13.94 1.22-21.02 1.24q-3.01.02-6.03.07c-11.83.05-27.68-.77-37.95-7.31-1.24-3.95-.83-6.78.19-10.74l.86-3.44.95-3.7 1.95-7.82.51-2.04c2.22-8.9 4.18-17.87 6.14-26.83A227 227 0 0 1 343 1075"/><path fill="#146dd1" d="m478 842-.1 2.53-.09 3.4-.1 3.35c.36 4.57 1.68 8.45 3.29 12.72l-13.5 3.36-4.6 1.15-6.6 1.64-2.08.52c-2.78.7-5.5 1.42-8.22 2.33a81 81 0 0 0 5.3 12.75c1.42 4.55-.8 8.78-2.59 12.99l-1.35 3.23-1.42 3.34-1.43 3.4L441 917l-8-4a70 70 0 0 1 4.31-14.5c1.85-4.9 1.77-7.67-.33-12.43L436 884l-.6-2.04c-.6-2.18-.6-2.18-2.4-4.96-4.39-2.23-8.3-2.25-13-1-4.9 1.74-8.07 3.65-11 8-1.16 7.6.04 15.43 1 23l-10 3-1-10.87-.29-3.08q-.4-4.52-.71-9.05l-.24-2.82c-.33-6.45-.33-6.45 2.37-9.88l2.87-1.99 3.03-2.22L409 868c5.2-3.96 8.45-6.87 10.36-13.2 1.2-3.35 3.54-5.25 6.64-6.8 6.32-.35 6.32-.35 8.98 1.02 6.74 3.27 18.04-1.74 24.77-3.58q3.58-.99 7.17-1.94 1.57-.44 3.18-.87c2.74-.6 5.1-.75 7.9-.63"/><path fill="#0a8da5" d="M449.65 982.18C452 983 452 983 453 985c.76 5.04.76 5.04 0 8-1.71 1.8-3.54 3-5.62 4.36-2.73 1.88-4.97 4-7.32 6.33l-2.27 2.26c-4.48 5.14-3.7 13.57-3.54 20.05.48 5.35 1.97 7.48 5.94 11.06A41 41 0 0 0 446 1041l2.54 1.73c2.76 1.43 4.5 1.64 7.58 1.58l2.57-.01c2.58-.16 2.58-.16 5.31-2.3 3.19-.12 3.19-.12 6 0q-2.58-3.6-5.19-7.19l-1.46-2.04A75 75 0 0 0 454 1022l-.75 2.44c-1.25 2.56-1.25 2.56-3.37 3.37l-1.88.19c-1.28-3.83-2.09-7.08-1-11a50 50 0 0 1 6.48-5.86 54 54 0 0 0 11.97-14.76c1.73-2.66 3.22-3.72 5.93-5.32A33 33 0 0 0 481 982a136 136 0 0 1 12 8 111 111 0 0 1-4.62 10.31l-1.36 2.68L486 1005c-3.31-1.53-5.04-2.86-7-6v-2h-2l-.22 2.15c-1 3.64-2.75 5.58-5.22 8.41-3.8 4.39-3.8 4.39-6.56 9.44l1.98 2.34 2.64 3.16 1.4 1.65c2.6 3.1 4.97 6.24 7.23 9.6 1.3 1.91 1.3 1.91 2.75 3.25l3-.12 3 .12c3.6 4.33 6 8.32 6 14-1.57 1.96-1.57 1.96-3.69 3.81l-2.07 1.9c-2.24 1.29-2.24 1.29-4.75 1.24-3-1.14-4.45-2.54-6.62-4.89-3.93-4.44-3.93-4.44-9.37-6.37-2.95.37-3.6 1.13-5.5 3.31h-2l-.44 2.38C458 1055 458 1055 457 1057c-3.93.92-7.07 1-11 0-4.35-3.07-7.75-7.27-11.22-11.27-1.75-1.84-1.75-1.84-4.13-3.14-4.21-2.55-6.29-4.26-7.61-9.12-.6-4.36-.61-8.7-.54-13.09v-2.34c.13-14.36.13-14.36 4.6-19.88 3.04-2.87 6.42-5.02 10.07-7.05 3.32-2.01 5.61-5 8.12-7.91 1.71-1.2 1.71-1.2 4.36-1.02"/><path fill="#2697a6" d="M211 952h1c.55 5.89-1.6 11-4.94 15.75-4.35 6.86-6.07 14.8-7.5 22.72A69 69 0 0 1 194 1006a136 136 0 0 1-7.06 2.38c-10.51 3.05-10.51 3.05-18.94 9.62-.44 1.91-.44 1.91-.37 4.02l-.02 2.44.03 2.63v2.7q0 2.85.02 5.68.03 4.33.02 8.66l.02 5.52v2.61c.05 4.3.13 7.9 2.3 11.74 2.18 1.14 2.18 1.14 4.75 1.62 4.1 1.05 7.5 2.42 11.25 4.38 2.68.91 5.36 1.81 8.07 2.61 2.52 1.81 2.75 3.59 3.3 6.56q.14.99.32 2.02l.7 3.92q.85 5.43 1.61 10.89h2l.48 1.77A137 137 0 0 0 214 1126l2 1c2.5 4.14 3.54 7.17 3 12l-2 3h-2l-.31 2.31c-.77 3-1.57 3.57-3.69 5.69-1.9 4.4-2.62 8.23-2 13 2.11 2.08 2.11 2.08 5 4a134 134 0 0 1 10.56 12.69 39 39 0 0 0 6.88 7.25L234 1189v2c5.39 1.8 10 1.74 15.07-.71a204 204 0 0 0 4.06-2.23c8.9-4.91 8.9-4.91 13.87-5.06 2.17 1 2.17 1 4.19 2.56 4.14 3 8.36 5.48 12.88 7.87q3 1.6 5.96 3.29a135 135 0 0 0 20.33 9.41A52 52 0 0 0 323 1209v3h2c2.5 6.02 4.08 12.09 5.47 18.45 1.1 5.01 1.1 5.01 4.53 8.55 3.23.7 3.23.7 7 1l3.9.48c6.15.68 12.3.99 18.48 1.27l3.55.21 6.49.3c3.02-.31 3.66-1.01 5.58-3.26h2c2.04-4.52 3.01-9.16 4-14h2l.75-3.31c1.35-3.99 1.74-4.67 5.25-6.69 3.4-.84 3.4-.84 7.25-1.5 5.55-1 10.53-2.36 15.75-4.5l7-2c8.82-2.71 16.99-5.72 25.2-9.96 3.26-1.21 4.54-1.2 7.8-.04 2.79 1.59 2.79 1.59 5.63 3.5 2.85 1.91 5.11 3.41 8.37 4.5v2c7.12 1.2 7.12 1.2 14-.25a77 77 0 0 0 5-4.75c5.56-5 5.56-5 8-5l.66-1.75c1.78-2.99 3.97-4.35 6.84-6.31 3.26-2.24 5.3-3.63 7.5-6.94h2c-.66-7.84-.66-7.84-4.06-14.69L508 1165a488 488 0 0 1-4.69-4.75c-2.87-3.02-2.87-3.02-6.31-5.25v-2h-2a352 352 0 0 1-5-5 475 475 0 0 0-8.77-7.01L479 1139v-2c-4.33.46-6.73 3.29-9.69 6.19a81 81 0 0 1-13.08 10.34c-3.5 2.31-6.67 5.03-9.87 7.74-2.44 1.78-4.55 2.65-7.36 3.73-3.51 1.8-6.96 3.72-10.41 5.63-11.44 6.2-24.12 8.96-36.9 10.94q-2.45.38-4.88.94c-3.51.61-6.97.67-10.53.69l-2.25.02-4.7.02q-3.54.02-7.08.07c-8.87.07-16.73-.58-25.25-3.31l-2.37-.7q-3.24-.97-6.44-2.05l-2.3-.77c-18.36-6.31-38.43-16.27-51.89-30.48l-1.81-1.69C271 1143 271 1143 271 1141c3.17 1.41 5.32 3.1 7.81 5.5 14.68 13.18 32.85 22.27 51.63 28l2.29.7c12.03 3.41 24.31 4.22 36.77 4.18l2.1-.01c39.08-.18 69.36-16.35 98.4-41.37l4.31-3.69L477 1132l1.9 1.94c4.44 4.48 8.9 8.84 13.7 12.94 4.1 3.62 8.06 7.39 12.03 11.15a112 112 0 0 0 8.21 7.16c4.15 3.48 4.84 8.17 5.85 13.31-1.58 8.04-10.66 13.24-16.75 18.12a330 330 0 0 0-6.13 5.07q-.8.66-1.61 1.36l-4.47 3.79c-6.54 5.18-6.54 5.18-11.6 5.09-4.28-.75-7.64-2.48-11.32-4.74l-1.79-1.04a52 52 0 0 1-7.7-5.47c-2.11-1.94-2.11-1.94-4.24-1.39-2.7.92-5.24 2.13-7.82 3.34-9.8 4.58-19.7 7.9-30.11 10.77a266 266 0 0 0-5.5 1.6 79 79 0 0 1-17.65 3l-.33 2.53a60 60 0 0 1-3.42 10.97l-.73 1.93c-1.84 4.66-3.75 8.21-7.52 11.57-3.11.79-6.06.66-9.25.5l-2.74-.08q-4.5-.16-9.01-.42l-3.35-.13q-5.07-.2-10.15-.49l-3.24-.14c-8.35-.59-8.35-.59-11.34-3.9a38 38 0 0 1-4.1-10.15l-.93-3.46c-.89-3.73-.89-3.73-1.1-6.05A19 19 0 0 0 323 1214c-2.98-2.05-6.23-2.86-9.69-3.81a146 146 0 0 1-24.43-10.19l-2.93-1.55a126 126 0 0 1-17.64-11.32c-2.25-1.41-2.25-1.41-4.6-.55L261 1188q-4.12 1.85-8.25 3.62l-2.16.99c-5.2 2.23-9.92 3.28-15.59 2.39-2.16-1.25-2.16-1.25-3.62-3l-1.7-1.94L228 1188l-3.5-4-1.76-2.04a93 93 0 0 0-5.12-5.27c-2.99-2.97-5.8-6.06-8.56-9.25l-2.34-2.69c-2.07-3.31-2.26-4.91-1.72-8.75 1.14-2.71 1.14-2.71 2.69-5.38l1.64-2.87q2.77-4.57 5.88-8.9c1.1-2.6.5-4.14-.21-6.85-.98-2.18-.98-2.18-2.22-4.31l-1.37-2.48-1.47-2.65c-7.48-13.87-16.94-32.37-16.94-48.56l-2.81-.31c-8.82-1.29-19.3-3.38-25.19-10.69-.41-2.14-.41-2.14-.47-4.65l-.07-2.85-.03-3.08-.05-3.17-.05-6.65q-.05-5.08-.18-10.16l-.04-6.46-.1-3.06c.07-6.84.07-6.84 2.65-9.87a32 32 0 0 1 11.5-5.95l2.65-.76 2.69-.72 2.78-.78q3.36-.94 6.72-1.84l.63-3.05c3.63-16.87 9.77-32.5 17.37-47.95"/><path fill="#0b63cf" d="M371 916c1.32 14.51-2.42 25.92-7.56 39.38l-2.14 5.78q-2.1 5.67-4.22 11.33-3.1 8.2-6.1 16.42l-.92 2.49L348 997h-2l-.5-1.73-5.15-18.1-1.92-6.73-2.78-9.77-.92-3.24q-3.36-11.72-6.97-23.36c-.96-3.12-1.76-5.79-1.76-9.07 8.51-3.19 16.95-5.6 25.88-7.31l2.62-.52A77 77 0 0 1 371 916"/><path fill="#1776cb" d="M575.67 909.37c4.85 3.39 9.18 8.05 11.33 13.63.87 8.13.88 16.15-4 23-4.7 5.1-9.2 8.56-16.23 9.37-9.05.17-14.74-.9-21.54-6.94-4.93-5.16-6.87-11-7.6-18 .76-7.03 3.55-14.07 8.97-18.84 9.12-6.89 19.04-7.76 29.07-2.22"/><path fill="#156bd2" d="M516.5 826.56A29.8 29.8 0 0 1 529 842c.85 7.4.64 13.95-4 20-5.97 6.55-12.12 10-21 10.44-5.94-.22-10.33-2-14.72-6.02-5.35-5.84-7.93-11.85-7.62-19.8 1.1-8.56 4.7-13.65 11.22-19.12 6.13-4.33 16.93-3.98 23.62-.94"/><path fill="#fafafb" d="M1307 1025c6.77 4.46 11.55 10.22 14 18l1 9h-67c2.49-12.46 5.73-19.71 16-27 10.96-6.57 24.82-5.61 36 0"/><path fill="#a59d08" d="M377 1097c8.79 2.79 17.35 6.15 25.94 9.5l2.38.93A1196 1196 0 0 1 448 1125c-1.83 4.02-4.38 6.36-7.81 9.06l-1.81 1.43C417.85 1151 417.85 1151 408 1151c-1.5-1.91-1.5-1.91-3.08-4.62l-1.8-3.05-1.93-3.33-2-3.38-4.11-7.05a1490 1490 0 0 0-6.11-10.4l-3.78-6.42-1.8-3.04-1.66-2.85-1.46-2.49A60 60 0 0 1 377 1097"/><path fill="#136dd1" d="M530 862a41 41 0 0 1 8.06 9.81 203 203 0 0 0 11.68 16.53C558 899.18 558 899.18 558 902l-1.76.52c-7.88 2.44-13 5.3-17.24 12.48-3.88-1.5-5.38-3.61-7.6-7.06l-2.05-3.11-2.1-3.27-6.15-9.44a267 267 0 0 0-8.64-11.96C511 878 511 878 511 876l2.38-1.03c7.14-3.3 12-6.57 16.62-12.97"/><path fill="#28939d" d="M536 1012h1c.6 15.97-.62 29.16-7.27 43.95-.96 2.31-.96 2.31-.73 6.05a57 57 0 0 0 5.75 5.31l1.63 1.42c3.08 2.63 3.08 2.63 6.95 3.13 1.66-.75 1.66-.75 2.67-1.86 4-.4 5.87.2 8.97 2.71l2.2 1.76 2.33 1.91 4.88 3.89 2.4 1.94q4.32 3.45 8.72 6.79 11.27 8.67 22.49 17.43l5.24 4.07 4.82 3.75c3.04 2.73 5.6 5.14 6.48 9.21-.1 7.4-2.09 10.86-7.1 16.35-3.62 3.25-7.14 3.8-11.87 3.71-4.79-.97-8.15-4.12-11.86-7.15-2.63-2.12-5.34-4.14-8.03-6.18a707 707 0 0 1-18.15-14.17 631 631 0 0 0-7.74-6.08q-3.6-2.81-7.14-5.65-2.25-1.76-4.53-3.49l-2.49-1.99-2.14-1.67c-1.48-2.14-1.48-2.14-1.27-5.97.13-2.65.08-3.78-1.5-5.94a74 74 0 0 0-5.71-4.73l-2.02-1.62q-2.47-1.97-4.98-3.88l-1.58 1.18-4.09 3.04q-2.26 1.72-4.44 3.53c-10.23 8.39-21.17 12.36-33.89 15.25l-2.42.59c-19.55 3.13-38.38-2.57-54.53-13.61-2.45-1.9-4.76-3.88-7.05-5.98l-2.1-1.82c-6.4-5.89-12.13-13.88-14.9-22.18l2-1 2 7h2v3h2l1 3q2.44 2.56 5 5l1.52 1.59c2.63 2.73 4.86 5.02 8.48 6.41v2a46 46 0 0 0 7 3v2l3.19.81c3.81 1.19 3.81 1.19 6.31 2.75 3.13 1.8 5.93 2.09 9.5 2.44v2l3.56-.06a50 50 0 0 1 7.81.56c11.02 1.52 21.36-.21 31.63-4.5l2.4-.86a47 47 0 0 0 13.85-7.76c1.75-1.38 1.75-1.38 4.5-3 2.36-1.31 2.36-1.31 4.19-3.5 2.76-2.51 4.34-2.88 8.06-2.88 2.71 1.05 4.58 2.29 7 4l1 3 3 1v2l1.94.5c2.06 1.5 2.06 1.5 2.55 3.31.38 3.08.51 6.08.51 9.19l2.44.81L540 1098l1 3h3v2l2.44.81L549 1105l1 3q2.5 1.03 5 2 2.55 1.95 5 4l2 1v2l1.81.88A36 36 0 0 1 569 1121v2l2.19.81c4.84 2.05 8.12 4.5 11.81 8.19l3.19 2.12C589 1136 589 1136 590 1138c3.33 2.22 6.06 2.46 10 2 5.41-2.24 8.05-4.52 10.42-9.91 1.2-4.3-.05-7.99-1.42-12.09-1.86-1.38-1.86-1.38-4.06-2.56-2.23-1.26-2.23-1.26-3.94-2.44v-2h-2v-2h-3v-2l-1.69-.19c-2.31-.81-2.31-.81-4.53-3.07-3.49-3.44-7.32-5.94-11.4-8.61q-2.24-1.51-4.38-3.13v-2l-3-1v-2l-2.14-.75c-3.23-1.41-5.74-3.2-8.55-5.31-3.51-2.7-3.51-2.7-7.31-4.94v-2c-4.1-1.02-4.1-1.02-8 0q-3 .06-6 0v-2l-2-.56c-5.29-2.54-10.07-5.98-12.19-11.56.23-3.46 1.23-5.05 3.19-7.88a65 65 0 0 0 3.63-11.31l.78-3.24.59-2.45h2l-.03-1.98c-.08-7.06.34-14 1.03-21.02"/><path fill="#0b8da9" d="M449.81 982c2.19 1 2.19 1 3.19 3 .76 5.04.76 5.04 0 8-1.71 1.8-3.54 3-5.62 4.36-2.73 1.88-4.97 4-7.32 6.33l-2.27 2.26c-3.7 4.25-3.12 9.39-3.23 14.74l-.14 2.64c-.12 6.9 1.82 10.73 6.58 15.67 2.3 2.04 4.27 3.63 7 5v2l10 1c-.75 5.75-.75 5.75-3 8-4.18.5-6.34.41-9.95-1.83l-2.74-2.42-2.76-2.39a141 141 0 0 1-4.65-4.5c-2.28-2.23-4.75-3.87-7.41-5.61C426 1037 426 1037 425 1034c-.25-4.13-.27-8.26-.3-12.4q0-2.03-.06-4.07a400 400 0 0 1-.07-5.9l-.04-3.56c.56-3.67 1.54-4.86 4.47-7.07h2l.69-1.75c1.67-2.87 3.58-4.39 6.31-6.25h3l-.37-2.12c.49-3.77 1.97-5.25 4.7-7.78 1.67-1.1 1.67-1.1 4.48-1.1"/><path fill="#2871ba" d="m536 940 .81 1.98c2.59 5.76 5 9.3 10.32 12.77A28 28 0 0 1 552 959a160 160 0 0 1-17 17c-5.01 3.9-5.01 3.9-7.19 9.44q1.47 3.14 3.07 6.25c5.44 10.75 5.47 20.49 5.12 32.31h-1l-.18-2.12-.26-2.76-.24-2.74c-.19-2.39-.19-2.39-1.32-4.38q-.44-3.35-.81-6.69c-.79-5.84-2.01-9.44-5.19-14.31v-4h-2c-.31-3.25-.31-3.25 0-7 2.38-2.44 2.38-2.44 5-4h2v-2h2l.75-1.69c2.06-3.8 4.07-6.68 7.94-8.75 2.65-1.42 2.65-1.42 3.12-4.75L546 956l-2.25-.81c-5.49-2.37-7.18-4.83-9.75-10.19l-1.47 1.5-6.65 6.75-2.31 2.36c-7.8 7.87-7.8 7.87-12.57 10.39-3.37-.75-3.37-.75-6-2v-2l-1.75-.85a107 107 0 0 1-6.31-3.59c-5.12-2.85-10.26-4.25-15.94-5.56l-2.22-.62c-15.77-4-33.3-2.24-47.54 5.44-2.24 1.18-2.24 1.18-5.87 2.55-4.55 2.2-7.74 5.16-11.37 8.63l-2.74 2.52c-7.86 7.45-13.08 15.3-16.6 25.58a66 66 0 0 1-1.5 3.92c-1.88 4.54-2.26 8-2.16 12.98l-2 2c-.64-10.36.08-17.67 5-27l1.4-2.92c9.1-17.47 25.91-30.2 44.44-36.15L443 948l2.28-.74c16.6-4.66 35.63-.67 50.72 6.74a132 132 0 0 1 15 10l.76-1.77c1.39-2.5 2.91-4.04 5.01-5.98l2.25-2.1 2.36-2.15 4.58-4.25 2.06-1.9q2.1-1.97 4.1-4.08C534 940 534 940 536 940"/><path fill="#2f77b4" d="M289 917h2l1 3-1.91 1.3c-28.32 19.78-47.99 49.1-56.09 82.7l-.97 3.68c-4.44 20.02-4.13 44.47.97 64.32l.59 2.36c5.9 23.2 16.67 44.37 33.41 61.64l-2 2a92 92 0 0 1-4-4v-2h-2c-1.29-1.46-1.29-1.46-2.62-3.38l-1.36-1.89C255 1125 255 1125 255 1123h-2l-1.06-2.31c-2.1-4.22-4.73-8.08-7.32-12.01A43 43 0 0 1 241 1101l-2.44-5.75A184 184 0 0 1 233 1080l-1.12-3.12c-1-3.27-1.42-6.5-1.88-9.88l-1-1c-4.32-19.04-3.37-40.88 0-60h2l.37-2.85.5-3.77.5-3.73A54 54 0 0 1 235 986h3l.52-2.56c1.43-6.74 3.07-12.45 6.48-18.44h2l.25-2.37c.75-2.63.75-2.63 2.81-3.94L252 958v-3h2l.13-2.19c1.03-3.32 2.58-4.36 5.3-6.4 2.65-2.38 3.97-5.27 5.57-8.41h2l.81-1.94C269 934 269 934 272 933c1.2-2 1.2-2 2-4h3l.75-1.87c1.46-2.48 2.63-3.08 5.25-4.13v-2l5-1z"/><path fill="#1d63b5" d="M371 831v62l-24 3c-14.93 3.16-28.22 8.52-42 15v-2l2.88-1.31c3.32-1.48 3.32-1.48 5.12-4.69 1.86-.97 1.86-.97 4.1-1.79l2.42-.91 2.54-.92 4.98-1.86 2.23-.81c1.73-.58 1.73-.58 2.73-1.71 2.97-.8 6-1.37 9-2l2.26-.54c6.14-1.4 12.2-1.84 18.47-2.12 3.43.14 3.43.14 6.27-1.34q.1-3.26.06-6.5l-.02-4.16-.02-2.21c-.12-14.4.17-28.74.98-43.13l-10.87.94-3.07.26-6.09.54q-2.92.26-5.86.47l-2.68.2-2.38.18c-2.86.57-4.47 2.03-6.1 4.41-2.35 4.94-3.4 10.27-4.47 15.6L327 858l-.37 2.13c-.8 2.37-1.64 3.36-3.63 4.87-2.34.77-2.34.77-4.94 1.25l-2.59.52c-2.47.23-4.13-.01-6.47-.77l6.38-2.5 3.58-1.4C322 861 322 861 324 861l.08-2.2c.5-8.78 1.78-17.22 6.84-24.6 4.64-3.32 9-2.98 14.58-3.01l3.07-.08c7.48-.16 14.95-.11 22.43-.11"/><path fill="#2973aa" d="M257 1003c3.71.64 7.02 1.67 10.52 3.05l3.28 1.29 7.18 2.83 17.39 6.87 9.38 3.69 3.48 1.37q10.94 4.34 21.77 8.9v3l-2.55 1.41a1025 1025 0 0 0-26.32 15.21 3083 3083 0 0 1-31.9 18.77l-3.1 1.79-2.72 1.58A22 22 0 0 1 257 1075c-6.35-21.11-10.29-51.43 0-72m3 4c-8.98 12.09-6.17 29.21-5.62 43.38l.09 2.8c.24 5.55 1 10.49 2.53 15.82h2v2l10-3v-3l2.01-.55c4.74-1.35 8.89-2.63 12.99-5.45l2-1v-2l2.38-.44c2.58-.44 2.58-.44 4.62-1.56v-3l3 1 2-1v-2h3v-2h4v-3l6-1v-2l5-1v-2l5-1v-2l4-1c-.66-3.1-.66-3.1-2.96-4.1l-2.42-.96A40 40 0 0 1 312 1025a63 63 0 0 0-4.5-1c-3.25-.61-4.65-1.1-7.5-3-2.62-.17-2.62-.17-5 0v-2h-4v-2l-5.25-1.44-2.95-.81q-3.4-.91-6.8-1.75v-2l-5.75-2-3.23-1.12c-3.14-1.07-3.14-1.07-7.02-.88"/><path fill="#1c69b3" d="M211 952h1c.55 5.89-1.6 11-4.94 15.75-4.35 6.86-6.07 14.8-7.5 22.72A69 69 0 0 1 194 1006a136 136 0 0 1-7.06 2.38c-10.51 3.05-10.51 3.05-18.94 9.62-.44 1.91-.44 1.91-.37 4.02l-.02 2.44.03 2.63v2.7q0 2.85.02 5.68.03 4.33.02 8.66l.02 5.52v2.61c.05 4.3.13 7.9 2.3 11.74 2.18 1.14 2.18 1.14 4.75 1.62 4.1 1.05 7.5 2.42 11.25 4.38 2.68.91 5.36 1.81 8.07 2.61 2.52 1.81 2.75 3.59 3.3 6.56q.14.99.32 2.02l.7 3.92q.85 5.43 1.61 10.89h2l1.44 4.75.8 2.67q.96 3.28 1.76 6.58h-2a193 193 0 0 1-8.87-24.75l-.66-2.35c-.81-3.04-1.47-5.73-1.47-8.9l-2.81-.31c-8.82-1.29-19.3-3.38-25.19-10.69-.41-2.14-.41-2.14-.47-4.65l-.07-2.85-.03-3.08-.05-3.17-.05-6.65q-.05-5.08-.18-10.16l-.04-6.46-.1-3.06c.07-6.84.07-6.84 2.65-9.87a32 32 0 0 1 11.5-5.95l2.65-.76 2.69-.72 2.78-.78q3.36-.94 6.72-1.84l.63-3.05c3.63-16.87 9.77-32.5 17.37-47.95"/><path fill="#26969f" d="M507 984h2v2h2v3l3 1c2 3 2 3 2 6h2c2.59 7.67 4.7 14.89 5 23l.12 2.45c.22 8.16-.9 16.03-4.12 23.55h-2l-.19 2.44c-2.34 10.27-9.78 19.04-18.37 24.87q-2.21 1.37-4.44 2.69l-3.12 2.06A68 68 0 0 1 465 1085l-2-1q-2.2.01-4.37.12c-10.8.07-19.55-3.59-28.63-9.12l-2.36-1.39c-3.22-1.95-6.16-3.74-8.64-6.61v-2h-2c-1.29-1.46-1.29-1.46-2.62-3.38l-1.36-1.89C412 1058 412 1058 412 1056h-2c-4.6-9.23-4.6-9.23-4-15 2.08 3.11 3.54 6.24 5.13 9.62 6.79 13.78 17.86 22.88 32.37 27.88 15.82 4.8 31.74 2.72 46.38-4.69 14.3-8.34 23.5-20.64 28.2-36.44 4.25-17.66-.15-34.09-9.08-49.37q-1.02-2-2-4"/><path fill="#2b9098" d="m440 989 1 4-2.06 1.13A74 74 0 0 0 429 1002l-1.58 1.14c-2.16 2.83-1.79 5.74-1.71 9.15l.01 2.14q.03 3.38.1 6.76 0 2.29.03 4.58.06 5.61.15 11.23l1.82.89c5.19 2.64 9.13 5.96 13.18 10.11 4.63 4.77 4.63 4.77 10.94 6.38l3.06-.38 3-7-3.31.06C451 1047 451 1047 448 1046v-2l-2.12-.62c-3.84-1.84-5.99-4.28-8.88-7.38l1-2 2.34 1.93 3.04 2.51 3.02 2.49c3.49 2.77 5.16 3.23 9.54 3.26l2.65.04c2.67-.06 2.67-.06 5.41-2.23 3.19-.12 3.19-.12 6 0l-5-7 3-1c3.06 4.33 3.06 4.33 2.77 7.87-.07 3.31-.07 3.31 2.5 5.72l2.98 2.35 2.95 2.4c2.58 1.89 2.58 1.89 5.05 1.49A11 11 0 0 0 489 1050c.72-2.61.72-2.61 1-5h-2l-.26-1.9c-.52-2.23-.52-2.23-2.48-3.04l-2.13-.62c-5.41-1.61-7.42-4.73-10.5-9.32-2-2.91-3.89-5.55-6.5-7.93-2.42-2.49-3.04-3.75-3.13-7.19.94-2.31.94-2.31 2-4h2l.38-1.94.62-2.06 2-1 1.38-2.5c1.62-2.5 1.62-2.5 3.8-3.31l1.82-.19c-3.58 5.67-7.77 10.8-12 16q2 2.69 4.02 5.36 2.25 3 4.4 6.07L476 1031l1.22 1.78c1.33 1.9 1.33 1.9 3.78 4.22q3 .07 6 0c1.9 2.05 1.9 2.05 3.38 4.75l1.52 2.67c1.1 2.58 1.1 2.58 1.1 6.58-1.57 1.96-1.57 1.96-3.69 3.81l-2.07 1.9c-2.24 1.29-2.24 1.29-4.75 1.24-3-1.14-4.45-2.54-6.62-4.89-3.93-4.44-3.93-4.44-9.37-6.37-2.95.37-3.6 1.13-5.5 3.31h-2l-.44 2.38C458 1055 458 1055 457 1057c-3.93.92-7.07 1-11 0-4.35-3.07-7.75-7.27-11.22-11.27-1.75-1.84-1.75-1.84-4.13-3.14-4.21-2.55-6.29-4.26-7.61-9.12-.6-4.36-.6-8.7-.54-13.09v-2.33c.07-14.32.07-14.32 4.84-20.14 3.53-3.33 7.36-5.69 11.66-7.91z"/><path fill="#2867ae" d="M371 916c1.32 14.51-2.42 25.92-7.56 39.38l-2.14 5.78q-2.1 5.67-4.22 11.33-3.1 8.2-6.1 16.42l-.92 2.49L348 997h-2l-.5-1.73-5.15-18.1-1.92-6.73-2.78-9.77-.92-3.24q-3.36-11.72-6.97-23.36c-.96-3.12-1.76-5.79-1.76-9.07 8.51-3.19 16.95-5.6 25.88-7.31l2.62-.52A77 77 0 0 1 371 916m-41 10c.48 8.15 2.75 15.67 5.06 23.44a1697 1697 0 0 1 4.09 14A455 455 0 0 1 346 991c3.1-.66 3.1-.66 4.1-2.93a84 84 0 0 0 4.41-15.78 33 33 0 0 1 2.63-7.23c3.5-8.3 3.5-8.3 4.86-17.06h2l1.94-6.75 1.09-3.8.97-3.45.63-2.06c.53-2.75.46-5.4.43-8.19l-.02-3.27L369 918c-12.44-.2-28.4 1.02-39 8"/><path fill="#2466b3" d="M308 867v3c-5.67 3.09-10.5 5.58-17 6l-1 3c-1.93.91-1.93.91-4.31 1.63l-2.37.72q-3.15.88-6.32 1.65v2l-2.87 1.31c-3.33 1.48-3.33 1.48-5.13 4.69-4.36 1.26-6.96 1.02-11-1v-2l-3-.25c-3.84-.51-6.64-2-9.91-4-3.24-1.16-4.8-.85-8.09.25a74 74 0 0 0-7.94 7.56l-2.05 2.1a281 281 0 0 0-11.43 12.53 212 212 0 0 1-4.96 5.43c-2.57 2.99-3.42 5.37-3.62 9.38h2l4.25 8.67a47 47 0 0 0 4.46 7.6c1.96 2.63 1.68 4.54 1.29 7.73-1.37 2.88-1.37 2.88-3 5h-2v2h-2a37 37 0 0 1 4-8c-.33-3.86-1.68-6.47-3.75-9.69-7.38-11.95-7.38-11.95-9.06-18.43 1.11-3.94 3.38-5.86 6.38-8.56 2.7-2.58 5.1-5.33 7.53-8.15 3.17-3.62 6.48-7.1 9.78-10.6l2.04-2.19c6-6.37 6-6.37 10.06-6.69 5.44.06 9.52 1.87 14.33 4.25l4.68 2.21 2.05 1c2.01.87 3.78 1.53 5.96 1.85a69 69 0 0 0 6.19-4.19c6.99-4.97 14.38-8.75 22.12-12.43l3.38-1.62C305.71 867 305.71 867 308 867"/><path fill="#f6fcfe" d="M567 919c3.28 2.07 4.85 3.77 7 7 .66 4.93.57 7.9-2.37 12-2.73 2.82-4.79 3.54-8.7 3.75-3.83-.27-4.83-.67-8-3.12-2.68-3.64-3.32-5.94-3.29-10.52.64-3.73 2.7-5.51 5.36-8.11 3.2-1.6 6.52-1.5 10-1"/><path fill="#226ab6" d="M503 976a40 40 0 0 1 4 6c-3 0-3 0-4.95-1.72l-2.3-2.34c-12.2-11.29-27.54-14.72-43.82-14.25-15.63 1.24-28.44 10.32-38.9 21.4-9.91 11.7-13.16 26.07-13.65 40.97l-.12 2.91q-.15 3.52-.26 7.03h-1c-3.46-17.87-.46-35.27 9.63-50.38L413 984h2l.63-2.25c1.79-3.58 4-4.64 7.37-6.75l2.13-2.37C446.32 953.27 483 957.43 503 976"/><path fill="#2c6dae" d="m303 938 1 3h-2v2h-3v2h-2v2h-2l-.7 1.7c-1.64 2.9-3.7 4.86-6.11 7.17a99 99 0 0 0-8.19 8.7c-2 2.43-2 2.43-4 3.43a134 134 0 0 0-3 6h-2a33 33 0 0 0-3 14l2.45.55 6.44 1.5c3.1.95 5.37 2.23 8.11 3.95 2.12.87 2.12.87 4.25 1.5l2.34.74 2.41.76 9 3 3 1v2l2.12.37 2.75.51 2.75.49c2.38.63 2.38.63 4.38 2.63 1.97.67 1.97.67 4.13 1.12l3.87.88v2l5 1q-1.2-4.93-2.44-9.88l-.7-2.84-.67-2.71-.62-2.5c-.51-2.11-.51-2.11-1.57-4.07-.13-2.67-.04-5.32 0-8a44 44 0 0 1 3.7 9.68l.92 3.31.94 3.45.96 3.43c1.3 4.69 2.58 9.34 3.48 14.13a2131 2131 0 0 1-63.69-24.69l-2.3-.91c-2.02-.85-2.02-.85-5.01-2.4-1-3-1-3 .3-5.9q.99-1.75 2.01-3.48l1.1-1.88c9-14.96 21.1-28.88 35.59-38.74"/><path fill="#f7fdfe" d="M507.77 837.64c3.27.53 5 2 7.23 4.36 1.53 3.06 1.23 5.62 1 9-1.65 3.54-2.72 4.81-6 7-4.7.84-8.03.67-12-2.06-2.4-3.52-3-5.7-3-9.94 2.94-6.47 5.82-8.58 12.77-8.36"/><path fill="#3173b7" d="M420 853c1.2 4.08 1 7.22-1 11a43 43 0 0 1-11.81 9.19c-3.19 1.8-4.39 2.71-6.19 5.81-.41 2.9-.41 2.9-.3 6.08l.04 3.51.07 3.66.04 3.7q.06 4.52.15 9.05l7 1-.48-1.87c-.73-4.4-.82-8.74-.9-13.2l-.1-2.71c-.1-6.58-.1-6.58 2.8-9.81C412 877 412 877 415.2 876.5l2.81-.5c1.44-1.95 1.44-1.95 2-4 5.33-.33 10.74-.6 15 3a60 60 0 0 1 3.56 7.25l.8 1.95c2.96 8.15.07 14.96-2.52 22.81-1.02 3.11-1.02 3.11-.84 6.99l-3-1a70 70 0 0 1 4.31-14.5c1.85-4.9 1.77-7.67-.33-12.43L436 884l-.6-2.04c-.6-2.18-.6-2.18-2.4-4.96-4.39-2.23-8.3-2.25-13-1-4.9 1.74-8.07 3.65-11 8-1.16 7.6.04 15.43 1 23l-10 3-1-10.87-.29-3.08q-.4-4.52-.71-9.05l-.24-2.82c-.33-6.45-.33-6.45 2.37-9.88l2.87-1.99 3.03-2.22L409 868c5.9-4.5 8.97-7.77 11-15"/><path fill="#2d75b2" d="M575.67 909.37c4.85 3.39 9.18 8.05 11.33 13.63.87 8.13.88 16.15-4 23-4.7 5.1-9.2 8.56-16.23 9.37-9.05.17-14.74-.9-21.54-6.94-4.93-5.16-6.87-11-7.6-18 .76-7.03 3.55-14.07 8.97-18.84 9.12-6.89 19.04-7.76 29.07-2.22m-29.54 4.94c-2.5 3.15-3.74 5.94-5.13 9.69h-1l-.06 5.69-.04 3.2A40 40 0 0 0 541 941h3v4l1.88.25c2.8 1 2.82 2.15 4.12 4.75 4.23 3.35 8.13 3.37 13.31 3.19l2.25-.04L571 953v-2l2.31-.31c2.87-.74 3.92-1.36 5.69-3.69v-2h3c3.04-8.33 5.15-17.02 1.31-25.44A20 20 0 0 0 576 912h-3l-1-3c-10.52-1.38-17.47-1.45-25.87 5.31"/><path fill="#2974b8" d="m536 940 .81 1.98c2.59 5.76 5 9.3 10.32 12.77A28 28 0 0 1 552 959a160 160 0 0 1-17 17c-5.01 3.9-5.01 3.9-7.19 9.44q1.47 3.14 3.07 6.25c5.44 10.75 5.47 20.49 5.12 32.31h-1l-.18-2.12-.26-2.76-.24-2.74c-.19-2.39-.19-2.39-1.32-4.38q-.44-3.35-.81-6.69c-.79-5.84-2.01-9.44-5.19-14.31v-4h-2c-.31-3.25-.31-3.25 0-7 2.38-2.44 2.38-2.44 5-4h2v-2h2l.75-1.69c2.06-3.8 4.07-6.68 7.94-8.75 2.65-1.42 2.65-1.42 3.12-4.75L546 956l-2.25-.81c-3.82-1.65-6.11-2.9-8-6.69-.75-2.5-.75-2.5-.75-5.5l-1.6 1.46-2.15 1.91-2.1 1.9A26 26 0 0 1 523 952c10.06-12 10.06-12 13-12"/><path fill="#2d9498" d="M338 1093h1c.13 7.75.13 7.75-1 10-.28 2.98-.45 5.97-.62 8.96-.38 3.02-1.2 5.25-2.38 8.04-.37 2.07-.37 2.07-.5 4.06-.5 3.94-.5 3.94-1.43 5.64-1.64 3.53-2.07 7.23-2.7 11.05l-.4 2.4-.97 5.85 1.9.4 2.48.54 2.46.52c2.16.54 2.16.54 4.16 1.54 21.07 4.14 21.07 4.14 42 2q3.5-.06 7 0l-2-7c3.25 2.83 4.52 4.69 5 9-7 1.11-13.94 1.22-21.02 1.24q-3.01.02-6.03.07c-11.83.05-27.68-.77-37.95-7.31-1.29-4.04-.78-6.96.26-11.02l.89-3.57.98-3.79 1.94-7.81.5-1.98c1.58-6.36 3-12.74 4.37-19.14l.64-2.98z"/><path fill="#2c83a3" d="m332 1052-2 10c-2-3-2-3-2-5q-1.98.38-3.94.81l-2.21.46-1.85.73-1 3c-2.07.95-2.07.95-4.56 1.69l-2.5.76-1.94.55v2l-3.44.81L303 1069l-1 3q-2.99 1.05-6 2l-1 2q-2.3 1.26-4.69 2.38a66 66 0 0 0-8.56 4.81c-2.75 1.81-2.75 1.81-6 2.81-2.88.73-2.88.73-4.12 3.12L271 1091h-4a164 164 0 0 0 8.83 15.9c1.17 2.1 1.17 2.1 1.17 4.1h3l1.69 3.19c2 3.5 4.38 6.02 7.31 8.81q2.54 2.96 5 6c-12.78-5.57-23.32-22.87-29-35v-4c2.46-1.89 2.46-1.89 5.89-3.83l1.85-1.07q2.97-1.69 5.95-3.35l5.78-3.3 3.86-2.19c5.27-3 10.43-6.15 15.58-9.34q7.32-4.53 14.71-8.92l2.93-1.77 2.8-1.67 2.5-1.49C329 1052 329 1052 332 1052"/><path fill="#2368b4" d="M289 917h2l1 3-1.91 1.3C264.07 939.47 245.4 965.64 236 996c-1.3-4.24-.34-6.54 1.25-10.69L240 978q1.2-3.56 2.32-7.13A48 48 0 0 1 245 965h2l.25-2.37c.75-2.63.75-2.63 2.81-3.94L252 958v-3h2l.13-2.19c1.03-3.32 2.58-4.36 5.3-6.4 2.65-2.38 3.97-5.27 5.57-8.41h2l.81-1.94C269 934 269 934 272 933c1.2-2 1.2-2 2-4h3l.75-1.87c1.46-2.48 2.63-3.08 5.25-4.13v-2l5-1z"/><path fill="#2375af" d="M175 1009c-1.25 3.75-2.56 4.24-6 6h-2q-.12 9.75-.16 19.49l-.07 6.63-.06 9.52-.05 3.01v2.79l-.02 2.45c.45 2.63 1.28 3.48 3.36 5.11 2.29.9 2.29.9 4.81 1.5A55 55 0 0 1 186 1070c2.68.91 5.36 1.81 8.07 2.61 2.52 1.81 2.75 3.59 3.3 6.56l.32 2.02.7 3.92q.85 5.43 1.61 10.89h2l1.44 4.75.8 2.67q.96 3.28 1.76 6.58h-2a193 193 0 0 1-8.87-24.75l-.66-2.35c-.81-3.04-1.47-5.73-1.47-8.9l-2.81-.31c-8.82-1.29-19.3-3.38-25.19-10.69-.41-2.14-.41-2.14-.47-4.65l-.07-2.85-.03-3.08-.05-3.17-.05-6.65q-.05-5.08-.18-10.16l-.04-6.46-.1-3.06c.07-6.88.07-6.88 2.76-9.93 5.15-3.99 5.15-3.99 8.23-3.99"/><path fill="#dbfbfc" d="m426.38 1167.31 1.62.69-13.22 5.28q-2.1.86-4.19 1.78c-27.4 9.9-60.45 6.41-87.59-2.06v-1l4.44.44 2.5.24c2.06.32 2.06.32 3.06 1.32 22.21 4.54 45.87 4.9 68 0l2.31-.49q3.48-.73 6.94-1.51l2.1-.47a36 36 0 0 0 8.88-3.22c2.77-1.31 2.77-1.31 5.14-1"/><path fill="#2167b2" d="m432 956-2.03.72c-13.3 5.58-25.96 17.8-32.04 30.93L397 990l-.9 2.16q-.76 1.95-1.44 3.94a66 66 0 0 1-1.5 3.92c-1.88 4.54-2.26 8-2.16 12.98l-2 2c-.64-10.36.08-17.67 5-27l1.4-2.92c5.86-11.26 16.89-23.6 28.6-29.08 3.36-.92 4.64-1.12 8 0"/><path fill="#1860b5" d="M329 927c2.2 3.86 3.27 8.04 4.46 12.29l2.17 7.69 2.2 7.77c2.38 8.4 4.62 16.81 6.52 25.34l.51 2.28A39 39 0 0 1 346 991c2.83-1.42 3.02-3.14 4.13-6.06l1.06-2.79.81-2.15c1.33 3.98 0 6.45-1.44 10.19l-.73 1.98L348 997h-2l-5.82-20.33-1.97-6.9-2.85-9.98-2.55-8.93q-.82-2.93-1.68-5.84l-.83-2.9-.74-2.57c-.92-4.18-.8-8.3-.56-12.55"/><path fill="#2786a2" d="M328 1063c1.13 3.38.86 5.62.03 9.06l-.72 3.06-.81 3.32-.82 3.46q-1.32 5.55-2.68 11.1l-1.82 7.54-2.7 11.14q-3.42 14.12-6.48 28.32c-4.53 0-5.84-.84-9.56-3.25l-2.88-1.83A21 21 0 0 1 294 1129c2.69 1 5.06 2.04 7.5 3.56 2.57 1.48 4.6 1.93 7.5 2.44l2.25-8.25.62-2.3c1.19-4.32 2.5-8.54 4-12.77 3.02-8.91 4.82-18.13 6.82-27.3l2.93-13.36c1.27-5.8 1.27-5.8 2.38-8.02"/><path fill="#2f8aab" d="M230 1054h1l.44 3.23c4.34 29.6 15.51 57.06 36.56 78.77l-2 2a92 92 0 0 1-4-4v-2h-2c-1.29-1.46-1.29-1.46-2.62-3.38l-1.36-1.89C255 1125 255 1125 255 1123h-2l-1.06-2.31c-2.1-4.22-4.73-8.08-7.32-12.01A43 43 0 0 1 241 1101l-2.44-5.75A181 181 0 0 1 233 1080l-1.04-2.61c-1.3-4.59-1.42-9.02-1.59-13.77l-.11-2.8q-.15-3.42-.26-6.82"/><path fill="#0e1427" d="M1384 994h33v1l-2.74.08a4787 4787 0 0 0-20.6.6l-3.79.12c-2.77-.12-2.77-.12-3.87 1.2a85 85 0 0 0-.16 5.06l-.03 3.31-.02 3.68-.03 3.84-.06 10.46-.08 10.92-.14 20.7-.16 23.56-.32 48.47h-1z"/><path fill="#daf4fb" d="m558 903-1 1 2.59.15 3.35.23 3.34.2 2.72.42 1 2-2.3-.14c-8.72-.3-14.72.87-21.51 6.45-5.42 6.66-7.49 12.11-7.19 20.69q.43 3 1 6c-1.48-1.03-1.48-1.03-3-3a55 55 0 0 1-.31-7.44v-4c.28-3.18.61-4.92 2.31-7.56h2l-1-2-5-1-2-2 1-3 5 5 .69-1.69c3.49-6.14 10.9-12.85 18.31-10.31"/><path fill="#1f9099" d="M406 1041c2.08 3.11 3.54 6.24 5.13 9.62 6.65 13.5 17.46 22.45 31.5 27.82 8.5 2.53 17.56 2.9 26.37 3.56v2c-3.75 1.12-3.75 1.12-6 0q-2.2.01-4.37.12c-10.8.07-19.55-3.59-28.63-9.12l-2.36-1.39c-3.22-1.95-6.16-3.74-8.64-6.61v-2h-2c-1.29-1.46-1.29-1.46-2.62-3.38l-1.36-1.89C412 1058 412 1058 412 1056h-2c-4.6-9.23-4.6-9.23-4-15"/><path fill="#307baf" d="M507 984h2v2h2v3l3 1c2 3 2 3 2 6h2c2.59 7.67 4.7 14.89 5 23l.12 2.45c.17 6.25-.35 12.53-2.12 18.55l-2 1 .06-2.46q.1-4.6.16-9.22.05-2.93.13-5.87c.11-11.03-1.8-20.92-7.48-30.51l-1.5-2.6L509 988q-1.02-2-2-4"/><path fill="#2697a1" d="M476 1132a143 143 0 0 1 11 10l-1 3q-1.76-1.43-3.5-2.88l-1.97-1.61L479 1139v-2c-4.33.46-6.73 3.29-9.69 6.19a82 82 0 0 1-13.26 10.46c-3.28 2.16-6.12 4.74-9.05 7.35l-2-1c2.92-3.98 6.03-6.71 10-9.62a193 193 0 0 0 21-18.38m-33 29 2 1-2 1z"/><path fill="#b5d9f7" d="M351 829h21v64h-1v-62l-18.37.94-5.8.29q-2.28.1-4.54.24l-2.4.11c-4.07.14-4.07.14-7.89 1.42v-3h19z"/><path fill="#d7f0f8" d="M551 957h2c-.4 5.3-1.91 7.51-5.7 11.18l-1.4 1.39-4.46 4.3-3.02 2.96q-3.7 3.6-7.42 7.17l.63 1.8c1.9 5.5 2.9 10.4 3.37 16.2-2.27-3.4-3.55-6.82-5-10.62-1-2.58-1-2.58-3-5.38.33-3.22 1.48-4.84 3.77-7.06l1.7-1.67 1.78-1.7 1.74-1.7 3.4-3.32c4.15-4 8.02-8.04 11.61-12.55z"/><path fill="#33949a" d="M343 1075a93 93 0 0 1 7.29 10.11l1.84 2.95 1.93 3.13 2.01 3.23L362 1104l1.68 2.7c5.35 8.65 10.61 17.29 15.32 26.3l-2 1-5-8.88-1.44-2.55-1.37-2.44-1.27-2.25C367 1116 367 1116 367 1114h-2c-4.1-4.97-6.93-10.74-9.71-16.51-2.86-5.53-6.54-10.54-10.29-15.49l-4 4c.88-7.62.88-7.62 2-11"/><path fill="#1e9aa4" d="m401.69 1214.44 4.31.56c-3.12 1.79-5.68 2.34-9.25 2.63l-2.7.22-2.05.15-.33 2.53a60 60 0 0 1-3.42 10.97l-.73 1.93c-1.8 4.57-3.73 8.31-7.52 11.57-3.64.72-7.12.57-10.81.38l-2.97-.09q-3.6-.1-7.22-.29v-1l20-1 1-4h2c2.04-4.52 3.01-9.16 4-14h2l.75-3.31c1.29-3.8 1.84-4.83 5.25-6.69 3.1-1.03 4.53-.97 7.69-.56"/><path fill="#f9f8d1" d="M404 1107c5.92-.29 9.84.37 15.38 2.75l3.94 1.67 1.9.82c2.35 1 4.72 1.91 7.1 2.82 10.45 4.21 10.45 4.21 14.68 6.94l1 3c-8.02-2.15-15.52-5.2-23.12-8.5A375 375 0 0 0 404 1108z"/><path fill="#26899c" d="M463 1001h2v2h-2l-2 5h-2l-2 4h-2l-1 3-2 .69c-2.18 1.1-2.18 1.1-2.48 3.21-.25 2.03-.39 4.06-.52 6.1h3l1-4c2.38-.12 2.38-.12 5 0 2 2 2 2 2 5l1.88.69c2.73 1.69 3.17 3.3 4.12 6.31l-2 1-1.17-1.61c-2.74-3.72-5.42-7.24-8.83-10.39l-.75 2.44c-1.25 2.56-1.25 2.56-3.37 3.37l-1.88.19c-1.28-3.83-2.1-7.08-1-11 2-2.29 4.16-4.08 6.54-5.97 3.1-2.55 5.52-5.46 8.05-8.56z"/><path fill="#c5e7f7" d="m171 1011-2.47 1.31c-3.92 4.17-3.15 8.28-3.02 13.8l.02 3.28q.06 5.18.16 10.36l.07 7.03q.08 8.61.24 17.22h-2c-1.2-2.41-1.15-3.98-1.2-6.68l-.04-2.94q-.08-6.65-.11-13.3l-.08-7.03a831 831 0 0 1-.1-10.11l-.06-3.18c0-2.68.05-5.13.59-7.76 3.06-2.93 3.96-3.35 8-2"/><path fill="#30384b" d="m826.11 993.41 2.94.03q4.64.05 9.26.18l6.3.09q7.7.1 15.39.29c-2 2-2 2-5.9 2.13l-5.05-.15-2.68-.08-8.5-.27-5.75-.18L818 995l-.73 1.72c-1.53 2.75-3.38 4.61-5.62 6.83l-2.58 2.56-2.7 2.64-2.71 2.69L797 1018l-2-2 1.39-1.37 6.3-6.26 2.18-2.16 4.1-4.06c2.2-2.2 2.2-2.2 4.15-5.37 3.49-4.2 7.9-3.53 13-3.37"/><path fill="#3674b6" d="M312 934c12.04 38.18 12.04 38.18 13 47l-2 2v-4h-2l-.62-3.03-.82-3.9-.8-3.91c-.43-3-.43-3-1.76-4.16l-.69-5.81c-.6-4.24-1.98-8.23-3.37-12.25A54 54 0 0 1 311 937l-6 1c3.63-4 3.63-4 7-4"/><path fill="#d4f9fa" d="M469 1140c-30.1 27-30.1 27-41 27 1-3 1-3 2.74-4.17l2.13-1.02 2.12-1.04c2.01-.77 2.01-.77 5.01-.77v-2h3v-2h3l1-3h3v-2l3-1 2-3 3-1 2-3h3v-3c3-1 3-1 6 0"/><path fill="#e2fefe" d="m494 1091 2 1c-4.17 3.86-8.07 5.34-13.44 6.75l-2.47.65c-10.55 2.53-23.52 3.57-34.09.6v-2l1.84.06c15.01.45 28.43-.2 42.5-5.76z"/><path fill="#ddf8fe" d="m456.4 944.9 3.64.01 3.77.03 3.84.01 9.35.05v2l3.04-.16c4.3.17 7.39 1.13 11.4 2.66l1.93.72q2.32.88 4.63 1.78v3l-3.69-1.25a922 922 0 0 0-11.94-3.87l-3.16-1.01c-15-4.05-29.56-1.98-44.21 2.13l1-3c1.9-.7 1.9-.7 4.25-1.12l2.33-.45L445 946l2.25-.52c3.1-.54 6-.6 9.14-.58"/><path fill="#dff5fd" d="M433 856c1.81 1.13 1.81 1.13 3 3 .4 3.18.55 5.13-1.19 7.88-2.46 1.53-3.95 1.55-6.81 1.12-1.81-1.12-1.81-1.12-3-3-.4-3.18-.55-5.13 1.19-7.87 2.46-1.54 3.95-1.56 6.81-1.13"/><path fill="#3975b3" d="M534 867c3.63 4.43 6.97 9.04 10.31 13.69l5.15 7.16 3.95 5.48 1.9 2.67 1.62 2.25C558 900 558 900 558 902l-1.72.52A61 61 0 0 0 542 909v-3h3v-3l7-3c-.49-4.83-1.74-7.55-4.69-11.37l-2.18-2.88L543 883l-3.31-4.44a126 126 0 0 0-4.36-5.53C534 871 534 871 534 867"/><path fill="#2a6ebd" d="M331 834c1.31 3.94.24 6.76-.81 10.63l-1.14 4.33-.56 2.1a128 128 0 0 0-1.55 7.25c-1.16 4.55-1.16 4.55-3.94 6.69-2.34.77-2.34.77-4.94 1.25l-2.59.52c-2.47.23-4.13-.01-6.47-.77l6.38-2.5 3.58-1.4C322 861 322 861 324 861l.08-2.2c.5-8.77 1.97-17.38 6.92-24.8"/><path fill="#d4f4fb" d="M254 1009c1.16 3.46.8 5.9.08 9.45-1.16 6.48-1.43 12.73-1.4 19.3l.01 3.43c.1 7.72.82 14.93 2.56 22.45.85 3.79 1.31 7.51 1.75 11.37l-2-1v-6h-2c-2-5.85-2.3-11.12-2.3-17.28l-.01-2.95v-6.14q-.01-4.68-.05-9.36v-5.99l-.03-2.81c.04-5.59.81-9.49 3.39-14.47"/><path fill="#ceebf8" d="m432 876.06 2 .94v2l-2.56-1.06c-3.98-1.09-6.45-.9-10.44.06-2.2 1.49-2.2 1.49-4 3h-3c-1.83 3.15-2.29 5.58-2.41 9.2l-.12 2.97-.1 3.08-.11 3.13q-.15 3.81-.26 7.62h-1l-1-8.12-.29-2.31q-.27-2.25-.5-4.5-.27-2.65-.65-5.29c.65-4.15 3.24-5.85 6.44-8.22l1.68-1.39c5.57-4.25 9.8-3.41 16.32-1.1"/><path fill="#daf5fc" d="m526 859 6 2c-3.2 6.4-11.02 11.83-17.5 14.38l-2.5.62v-2h2v-2l-2-2 3.63-1.56c4.6-2.27 7.35-5.37 10.37-9.44"/><path fill="#d5fafb" d="m330 1239 1.68 1.46c2.68 1.78 4.26 2.02 7.44 2.24l3.06.22 3.26.2 3.34.24c10.4.71 20.8 1.22 31.22 1.64v2a359 359 0 0 1-33.44-.88l-3.57-.23-3.36-.26-3-.22A17 17 0 0 1 330 1243z"/><path fill="#dbfcfe" d="m430 995 3 1-1.73.92A21 21 0 0 0 425 1003c-.93 5.02-.9 9.85-.71 14.94q.12 3.57.14 7.14l.14 6.69c.06 4.06.06 4.06 2.43 7.23l-5-1v-37h3v-2h2v-2z"/><path fill="#cdf4f5" d="M487 1075c-3.44 3.06-7.12 4.13-11.5 5.19l-2.15.52c-9.75 2.23-18.68 1.69-28.35-.71v-1l2.12-.04 9.7-.27 3.33-.07a67 67 0 0 0 18.55-2.97c2.82-.8 5.39-.89 8.3-.65"/><path fill="#2b71b6" d="M468 963c7.32-.37 13.23.13 20 3l3 1.25c6.6 3.85 12.23 8.02 16 14.75-3 0-3 0-4.95-1.72l-2.3-2.34c-8.83-8.17-19.79-12.72-31.75-13.94z"/><path fill="#2e71ba" d="M514.56 838.38C516 840 516 840 516 843h2c.08 4.16-.02 7.95-1 12l-4 1 1-2.06a20 20 0 0 0 1-9.94c-1.79-3.12-1.79-3.12-5-5-4.3-.87-7.71-.77-11.5 1.5-2.06 3.43-2.59 6.52-2.5 10.5.96 2.8 1.9 3.9 4 6-1.87-.31-1.87-.31-4-1-2.98-4.47-2.48-8.76-2-14 1.13-3.12 1.13-3.12 3-5 5.52-1.84 12.42-1.38 17.56 1.38"/><path fill="#d8f8fb" d="M515 999c4.7 7.04 5.53 15.03 5.44 23.31l-.02 2.76c-.16 7.68-.71 17.22-6.42 22.93l.4-2.38.54-3.18.52-3.13.54-3.31.55-3.37c.5-4.09.63-8.08.64-12.19l.03-2.21c.02-4.51-.65-7.96-2.22-12.23q-.14-3.5 0-7"/><path fill="#186eaf" d="M228 1015h1l.08 2.62c.48 16.47 1 32.93 1.92 49.38l-2-1c-2.6-9.67-2.18-20.09-2.19-30v-3.83c.03-5.82.13-11.45 1.19-17.17"/><path fill="#0e1529" d="M1560 958h35v21h-1v-20l-8 1q-2.88.1-5.78.06l-3.05-.02-3.11-.04-6.21-.06-2.75-.04c-2.09-.14-2.09-.14-3.1 1.1a179 179 0 0 0-.38 9.53l-.18 7.03-.13 4.76L1561 994h-1z"/><path fill="#d6f7fc" d="M535 1002c5.24 6.15 4.18 13.58 4.19 21.25l.03 3.32c.02 6.44-.3 12.26-2.22 18.43l-3 1c.9-7.6.9-7.6 1.53-10.13.71-4.35.61-8.66.6-13.06v-2.71c0-6.09-.41-12.05-1.13-18.1"/><path fill="#196bad" d="m408 992 2 1-1.06 3.54-1.38 4.65-.7 2.33-.67 2.27-.62 2.08a55 55 0 0 0-1.89 12.21l-.12 2.82-.12 2.91-.13 2.97-.31 7.22h-1c-2.82-14.54-1.36-29.61 5-43z"/><path fill="#d2f6f7" d="m341 1074 3 1-.88 2.99c-4.01 13.86-7.09 27.91-10.12 42.01h-1c.57-17.26.57-17.26 3.25-23.97a41 41 0 0 0 1.75-6.97c.95-5.14 2.41-10.08 4-15.06"/><path fill="#3f82b2" d="M388 1004h1c.2 9.7-.4 19.33-1 29h2l.38 2.31q.53 3.2 1.17 6.4l.57 2.91.57 2.79c.3 2.56.12 4.18-.69 6.59-6.1-16.42-7.93-32.81-4-50"/><path fill="#d3f8f8" d="M474 1028c1.88.12 1.88.12 4 1a31 31 0 0 1 2 6l2.69-.31c4.37.41 5.55 2.01 8.31 5.31 2 3 2 3 2 6h2c.47 4.04.36 5.54-2.19 8.81-2.8 2.18-4.33 2.89-7.81 3.19q1.42-1.76 2.88-3.5l1.61-1.97L491 1051h2a189 189 0 0 0-6-13l-2.56.56c-4.93-.8-6.3-3.58-9.12-7.49C474 1029 474 1029 474 1028"/><path fill="#1762b5" d="m303 938 1 3h-2v2h-3v2h-2v2h-2l-.7 1.7c-1.64 2.9-3.7 4.86-6.11 7.17A117 117 0 0 0 278 967c0-3 0-3 2-5l.74-2.22c1.75-3.85 4.38-6.3 7.38-9.22l1.76-1.73A99 99 0 0 1 303 938"/><path fill="#2c6fb7" d="m456 870-10 3a81 81 0 0 0 5.3 12.75c1.6 5.14-1.3 9.9-3.36 14.56l-.86 1.96L445 907c-1.2-3.6-.66-5.02.38-8.62l.83-2.98c.79-2.4.79-2.4 1.79-3.4.17-3.83-.12-7.27-1-11h-2l-1-10c7.5-2.12 7.5-2.12 12-1"/><path fill="#cbf6f7" d="M417 1213v2c-4.77 2.21-9.46 2.67-14.65 3.21-3.5.41-5.35.79-8.35 2.79-2.05 4.1-2.91 8.57-4 13l-1 2h-2v3h-2a197 197 0 0 1 2.15-7.06c.93-2.91.93-2.91 1.2-5.88.65-3.59 1.2-5.31 3.65-8.06 7.6-3.39 16.7-5 25-5"/><path fill="#a49e33" d="M405 1108a217 217 0 0 1 17.32 6.36l2.25.92 7 2.91 4.78 1.98L448 1125c-1.37 3.16-1.99 3.99-5 6 0-3 0-3 1-5h-3l-1-2c-1.9-.95-1.9-.95-4.24-1.8l-2.74-1.05L430 1120l-6.44-2.58-3.33-1.33L405 1110z"/><path fill="#2566a8" d="M337 962c2.99 4.48 4 8.64 4 14h2l1.5 5.81.84 3.27C346 988 346 988 346 991c2.83-1.42 3.02-3.14 4.13-6.06l1.06-2.79.81-2.15c1.33 3.98 0 6.45-1.44 10.19L348 997h-2l-5.15-17.45-2.48-8.37A30 30 0 0 1 337 962"/><path fill="#cff5fb" d="M232 1061a51 51 0 0 1 5.25 15.88c1.76 9.6 4.8 19.28 10.75 27.12.19 2.75.19 2.75 0 5-7.07-8.56-10.4-20.58-13.44-31.06l-.78-2.67c-1.37-4.92-2.06-9.17-1.78-14.27"/><path fill="#4180b9" d="M568 906v1l-3.87.19c-5.73.61-10.16 3.05-15.13 5.81l-2.18.84c-2.6 1.66-2.82 3.35-3.57 6.28l-.73 2.76L542 925h-1v16c-3.11-4.67-3.37-8.39-3-14 2-7.57 5.63-13.63 12.22-17.97 5.8-3.37 11.26-3.26 17.78-3.03"/><path fill="#2569b7" d="M347 895c-3.06 1.7-5.9 2.51-9.31 3.25-11.4 2.75-22.12 7.78-32.69 12.75v-2l2.88-1.31c3.32-1.48 3.32-1.48 5.12-4.69 5.27-2.8 11.01-4.41 16.84-5.56a92 92 0 0 0 6.29-1.57A38 38 0 0 1 347 895"/><path fill="#a19b2f" d="M377 1097a306 306 0 0 1 18.56 6.69l2.48.97L404 1107c-4.4 1.46-7.07-.45-11.21-2.19-3.06-.89-4.76-.69-7.79.19l1 8a95 95 0 0 1-6.19-9.12l-1.6-2.64C377 1099 377 1099 377 1097"/><path fill="#316faf" d="m530 862 4 4-2 3v-3a48 48 0 0 0-8.19 5.69C521 874 521 874 519 874v2l-3 1c.41 2.96.79 4.72 2.63 7.13L520 886l-1 3a1169 1169 0 0 1-6.25-8.4C511 878 511 878 511 876l2.38-1.03c7.14-3.3 12-6.57 16.62-12.97"/><path fill="#2b8da0" d="M406 1041c2.08 3.11 3.54 6.24 5.13 9.62 4.89 10.01 11.25 16.7 20.87 22.38-1.8.61-1.8.61-4 1-3.36-1.92-6.53-3.98-9-7v-2h-2c-1.29-1.46-1.29-1.46-2.62-3.38l-1.36-1.89C412 1058 412 1058 412 1056h-2c-4.6-9.23-4.6-9.23-4-15"/><path fill="#29839b" d="M481 982a136 136 0 0 1 12 8 111 111 0 0 1-4.62 10.31l-1.36 2.68L486 1005c-3.77-1.67-5.07-3.33-7-7l3 1v2l4 1 1-6h2c.42-2.33.42-2.33 0-5-2.44-2.2-2.44-2.2-5-4v-2c-3.73 1.12-3.73 1.12-6 4l-2-1z"/><path fill="#377baf" d="M526 983c8.93 13.4 10.46 25.3 10 41h-1l-.18-2.12-.26-2.76-.24-2.74c-.19-2.39-.19-2.39-1.32-4.38q-.44-3.35-.81-6.69c-.76-5.9-.76-5.9-3.25-11.18-2.42-3.9-2.62-6.6-2.94-11.13"/><path fill="#d5f2fb" d="M477 965c13.6 3.95 24.57 11.48 33 23v2c-3-1-3-1-3.96-2.87L505 985c-1.7-1.66-1.7-1.66-3.62-3.12-1.92-1.51-1.92-1.51-3.38-2.88v-2l-1.69-.81c-2.31-1.19-2.31-1.19-4.53-2.6a63 63 0 0 0-9.6-4.28l-3.51-1.32L476 967z"/><path fill="#2869b4" d="M362 918a17 17 0 0 1-8.44 2.44c-7.95.67-17.03 1.65-23.56 6.56-.9 3.6-.9 3.6-1 7-1.65-2.98-2.39-5.66-3-9 25.31-8.97 25.31-8.97 36-7"/><path fill="#c9f4f7" d="M438 1005v3l-1 1a84 84 0 0 0-.1 4.91l.01 3 .03 3.15.01 3.17.05 7.77h2v3l2.44.75L444 1036c.66 2.08.66 2.08 1 4l-3.81-2.81-2.15-1.58c-4.9-3.86-4.9-3.86-5.43-6.71v-2.39l-.02-2.64.04-2.75-.04-2.72c.02-5.43.38-9.36 4.41-13.4"/><path fill="#3170b2" d="M520 889h2c3 4.38 3 4.38 3 7h3l1 6 3 1c4 4.34 4 4.34 4 8l3-2h3l-3 6c-3.82-1.5-5.4-3.58-7.67-6.94l-2.01-2.96-2.07-3.1-2.11-3.1c-5.14-7.62-5.14-7.62-5.14-9.9"/><path fill="#ccf4f8" d="M477 997h2l1.94 2.94c1.77 3.3 1.77 3.3 5.06 4.06l3-7h1c.22 3.25.29 5.43-1.19 8.38-1.81 1.62-1.81 1.62-4.5 1.87L482 1007l-2-4h-3c-1.36 1.78-1.36 1.78-2.5 4-1.22 2.25-1.22 2.25-2.5 4h-3c1.2-2.82 2.54-4.63 4.56-7 2.1-2.59 3.07-3.79 3.44-7"/><path fill="#3372ae" d="M325 982a44 44 0 0 1 3.7 9.68l.92 3.31.94 3.45.96 3.43c1.3 4.69 2.58 9.34 3.48 14.13l-7-3 3-1q-1.2-4.93-2.44-9.88l-.7-2.84-.67-2.71-.62-2.5c-.51-2.11-.51-2.11-1.57-4.07-.13-2.67-.04-5.32 0-8"/><path fill="#1d63b4" d="M362 948c3.23 9.69-4.52 22.96-8 32h-1c-.42-5.77.31-9.26 2.85-14.42 1.85-4.15 3.04-8.5 4.32-12.86C361 950 361 950 362 948"/><path fill="#dbf3fb" d="m282 926 2 1a396 396 0 0 1-20 21l-3-1 8.4-9.14c3.98-4.29 8.1-8.14 12.6-11.86"/><path fill="#cdebfa" d="m479 840-.07 2.53c-.11 6.86.27 12.85 2.07 19.47-3-3.8-4.14-6.6-4.12-11.44l-.01-2.3c.13-2.22.56-4.12 1.13-6.26l-1.9.46-8.48 2.04-2.98.72-2.85.69-2.64.63C457 847 457 847 455 847v-2c4.5-2.25 8.08-2.17 13-2v-2a44 44 0 0 1 11-1"/><path fill="#a19c2d" d="M441 1133c-6.61 5.32-13.51 9.55-21 13.5l-2.54 1.35c-6.07 3.15-6.07 3.15-9.46 3.15l-1-3c3.88-1.19 6.92-2 11-2v-2a88 88 0 0 1 10.38-4l2.62-1 1-3h3v-3c3-1 3-1 6 0"/><path fill="#beeeed" d="m392 1156-2 3c-2.89.34-2.89.34-6.54.29l-3.94-.03-4.14-.07-4.17-.04L361 1159l-1-2 11.5-.5 3.27-.14c5.75-.25 11.47-.42 17.23-.36"/><path fill="#c9e9f8" d="m459.81 962.88 2.08-.02c4.47.01 8.7.41 13.11 1.14v1l-1.85.04c-14.8.15-14.8.15-29.13 3.44-2.36.6-3.73.3-6.02-.48l4.75-1.94 2.67-1.09c4.88-1.84 9.19-2.12 14.4-2.1"/><path fill="#1b609c" d="M175 1009c-1.25 3.75-2.56 4.24-6 6h-2l-1 43h-1q-.3-9.02-.44-18.04-.06-3.07-.16-6.14-.14-4.4-.18-8.83l-.13-2.75c0-3.86.02-6.25 2.67-9.19C172 1009 172 1009 175 1009"/><path fill="#dcf8fd" d="m544 947 1.86 1.28 4.88 3.31c4.03 2.51 7.4 2.6 12.07 2.66l3.65.08c3.83-.36 6.17-1.54 9.54-3.33l2 1c-4.48 4.48-8.48 5.65-14.75 5.81-7.27 0-11.74-2.21-17.4-6.86C544 949 544 949 544 947"/><path fill="#3b80b3" d="M541 941h3v4l1.69.19c3.25 1.14 4.96 3.34 7.31 5.81 3.17 1.59 6.63 1.38 10.13 1.56l2.28.13 5.59.31-1 2c-8.83.57-15.93.81-23-5a40 40 0 0 1-6-7z"/><path fill="#d4f6f8" d="M316 1118h1c.4 8.93.06 16.41-5 24-3.12.49-4.58.25-7.31-1.38L303 1139v-2l2.31.94q2.82 1.1 5.69 2.06z"/><path fill="#3874b6" d="M517 828c6 2.65 9.16 8.32 12 14 .52 6.64.77 12.35-3 18l-1-3 1-1c.44-6.47.59-12.96-2-19-2.52-2.77-2.52-2.77-5-5v-2h-2z"/><path fill="#389a9d" d="M327 1141h1l1 7c8.22 3.46 16.16 5.02 25 6-4.25 2.38-7.36 2.1-12 1a329 329 0 0 1-15-5c-.76-3.41-1.12-5.65 0-9"/><path fill="#d4f3fb" d="M232 1008h1q.05 3.88.06 7.75l.03 2.21c.02 5.61.02 5.61-.58 7.9-.66 2.76-.73 5.39-.83 8.22l-.12 3.51-.12 3.66-.13 3.7-.31 9.05h-1a2292 2292 0 0 1-.15-17.92c-.1-9.59.32-18.63 2.15-28.08"/><path fill="#a29f2f" d="M386 1113c3 1 3 1 5 4v3h2l2 7h2l1.02 1.86 2.7 4.88A88 88 0 0 0 404 1139c-.37 2.19-.37 2.19-1 4q-3.64-6.16-7.26-12.34l-2.48-4.19-3.54-6.03-1.13-1.91c-2.59-4.42-2.59-4.42-2.59-5.53"/><path fill="#3487a3" d="M536 1012h1c.48 12.72.17 23.89-4 36h-1l-.06-4.25-.04-2.39c.1-2.27.47-4.19 1.1-6.36h2l-.03-1.98c-.08-7.06.34-14 1.03-21.02"/><path fill="#d7f6fc" d="M387 1000h2l-.44 4.69-.24 2.63c-.32 2.68-.32 2.68-.85 5.1-1.63 8.93-.5 18.61.53 27.58l-3-1q-.09-6.37-.12-12.75l-.06-3.6c-.04-7.76.63-15.04 2.18-22.65"/><path fill="#def9fd" d="M570 922c3.27 2.45 3.95 3.71 4.63 7.81-.26 4.2-1.76 6.87-4.63 9.91-3.73 2.38-7.76 1.8-12 1.28l-1-2 1.86-.18 4.88-.5c2.42-.27 2.42-.27 5.26-1.32l1-3h2a168 168 0 0 0-2-12"/><path fill="#d6fbfa" d="m326 1149 1.61.52c9.95 3.17 19.5 6.04 29.93 7.06l2.46.42 1 2-4.37.06-2.47.04c-2.16-.1-2.16-.1-4.16-1.1q-2.28-.2-4.56-.31c-5.44-.49-9.6-2.28-14.44-4.69q-2.5-1.02-5-2z"/><path fill="#d9f4fc" d="m262 986 1.94.85 8.87 3.9 3.05 1.34A283 283 0 0 0 296 1000v1c-6.19.7-10.93-1.79-16.44-4.25l-2.77-1.2c-5.13-2.24-10-4.67-14.79-7.55z"/><path fill="#d7f3fc" d="M210 931c2.64 3.18 5.18 6.27 7 10-.46 2.85-1.48 5.15-2.85 7.67l-1.08 2.01-1.13 2.07-1.15 2.11L208 960h-1v-5h2v-4h2v-4h2v-8l-2-1q-.6-3.49-1-7"/><path fill="#ccf4f7" d="m257 1189 2 1c-2.3 3.45-3.18 3.73-7 5l-3.19 1.12c-4.58 1.06-9.14 1.64-13.81.88-1.8-1.52-1.8-1.52-3-3l1-2 2 2c7.35.84 12.54-1.1 19.28-4z"/><path fill="#cdf7f7" d="m517 1182 1 2-1 3-4 2-1.5 2c-1.69 2.25-3.03 2.77-5.5 4l-3 4-3 1-2 3-4-1 2.5-2.09A661 661 0 0 0 517 1182"/><path fill="#248698" d="m475 1000 2 1-2.37 2.74-3.07 3.57-1.56 1.81-1.5 1.74-1.38 1.61c-1.33 1.65-1.33 1.65-2.12 4.53q1.93 2.55 4 5v2c-3.16-1.37-4-1.99-6-5 .38-3.69.38-3.69 1-7l3-1q.55-1.99 1-4l2-1 1.5-2.5c1.5-2.5 1.5-2.5 3.5-3.5"/><path fill="#25839d" d="m440 989 1 4-2.06 1.13A74 74 0 0 0 429 1002l-1.57 1.3c-1.85 2.2-1.85 3.52-1.94 6.37l-.1 2.7-.08 2.82-.1 2.85-.21 6.96h-1c-2.4-18.22-2.4-18.22 1.46-24.3 3.54-3.87 7.65-6.92 12.05-9.74 1.48-.88 1.48-.88 2.49-1.96"/><path fill="#daf4fc" d="M278 958c.75 1.65.75 1.65 1 4-1.66 2.63-1.66 2.63-4.06 5.56A98 98 0 0 0 264 985c-1.25-3.77-.37-5.37 1-9h2v-3h2v-3h2l.31-1.75c.8-2.6 1.88-4.22 3.69-6.25h2z"/><path fill="#2279a5" d="M195 1081a19.8 19.8 0 0 1 5 15h2l1.44 4.75.8 2.67q.96 3.28 1.76 6.58h-2c-9-21.84-9-21.84-9-29"/><path fill="#30989f" d="M601 1110a31 31 0 0 1 8.19 5.5l2.1 1.84c2.14 2.08 2.69 3.06 2.8 6.04l-.03 2.74-.02 2.76-.04 2.12-3-1-.18-1.86-.5-4.88c-.27-2.42-.27-2.42-1.32-5.26-2.02-1.4-4.13-2.54-6.28-3.72L601 1113z"/><path fill="#c5f0f2" d="m448 1013 3 1-1.49 1.14c-2.09 2.57-1.81 4.29-1.7 7.55l.08 3.01.11 2.3c3.37-1.52 4.6-2.52 6-6 3.74 1.25 4.19 2.63 6 6l-2.25-.69c-2.79-.62-2.79-.62-4.81 1.13L451 1030h-4c-1.07-3.46-1.1-6.64-1.06-10.25l.02-3.27.04-2.48z"/><path fill="#d9f3fb" d="m288 873 3 1c-3.99 3.2-8.42 5.56-12.87 8.04a52 52 0 0 0-7.38 4.77L269 888l-3-1 3-1 1-3h3v-2c5.63-3 5.63-3 9-3v-2l6-1z"/><path fill="#3473b8" d="m433 848 1.8 1.04c3.12 1.36 5.59.92 8.95.59l3.55-.34 2.7-.29v2a37 37 0 0 1-14 2v-2h-13v2h-2c1-3 1-3 2.63-4.19 3.25-1.11 5.95-1.05 9.37-.81"/><path fill="#40a7b2" d="m397 1179-1 2c-7.54 1.32-14.94.93-22.56.56l-3.64-.16q-4.4-.18-8.8-.4v-1l2.18-.08q4.95-.16 9.88-.36l3.44-.12c6.85-.24 6.85-.24 13.66-1 2.7-.42 4.29-.36 6.84.56"/><path fill="#d2f7f8" d="M329 1124h2c-.61 8.6-2.8 16.69-5 25h-1c-.66-8.97 1.22-16.5 4-25"/><path fill="#cdf0f9" d="m166 1064 1.34.92c7.9 4.92 16.73 6.82 25.66 9.08l1 7h-2l-1-5-3.7-.95-4.86-1.3-2.43-.62A49 49 0 0 1 166 1067z"/><path fill="#d1f9fb" d="m512 1049 2 1c-10 16.98-10 16.98-19 21l1-4h3v-2l2-1 1-3c1.94-2.19 1.94-2.19 4-4h2v-3h2v-3h2z"/><path fill="#2d75b4" d="M557 917c5.44-.22 9.87-.1 15 2l1 5h2v10h-1l-.25-3.69c-.5-4.1-1.78-6.34-4.75-9.31-3.14-1.57-6.56-1.23-10-1l-3 1z"/><path fill="#3675b8" d="M484 838a23 23 0 0 1 .88 8.13c-.07 4.54.94 8.32 2.37 12.6A72 72 0 0 1 489 865c-4.34-3.74-6.67-7.8-7.25-13.47-.11-4.9.32-8.95 2.25-13.53"/><path fill="#d2f0fb" d="m429.56 846.88 2.94-.01c2.5.13 2.5.13 4.5 1.13 6.07.22 11.97-.3 18-1v1c-15.66 4.17-15.66 4.17-22 1-4.22-.23-7.42-.39-11 2l-2 2 1-5c3.1-1.03 5.31-1.13 8.56-1.12"/><path fill="#3471b4" d="m478 842-.1 2.53c-.18 7.24.37 12.75 3.1 19.47l-8 1 1-2h4q-.48-1.27-1-2.57c-1.06-3.63-1.2-6.53-1.12-10.3l.05-3.5.07-2.63h-7c3.17-1.88 5.36-2.1 9-2"/><path fill="#f8f7c8" d="M387 1116c3.64 4.27 6.47 8.87 9.31 13.69l1.42 2.34 1.32 2.23 1.2 2.03.75 1.71-1 2c-3-2-3-2-3.69-5.12L396 1132l-3-1-.94-2.88c-.75-3.21-.75-3.21-3.19-4.62L387 1122c-.25-3.19-.25-3.19 0-6"/><path fill="#cef2f7" d="M324 1086h1c.63 8.71-1.08 15.81-4 24h-2c.6-5.66 1.62-11 3.06-16.5l.57-2.2z"/><path fill="#d8f6fd" d="m523 948 3 1-1.27 1.16-5.67 5.22-2 1.82-1.9 1.76-1.76 1.62c-1.51 1.39-1.51 1.39-2.4 3.42a19 19 0 0 1-7-5l3.13.94c3.72.48 3.72.48 5.46-1.26q1.5-1.84 2.93-3.75c2.2-2.87 4.53-4.83 7.48-6.93"/><path fill="#d4f0fb" d="M469 946c10.42-.4 19.5 1.76 29 6v3l-3.69-1.25c-12.43-4.35-12.43-4.35-25.31-6.75z"/><path fill="#306db2" d="M505.06 824.69h3.6c3.2.3 5.46.94 8.34 2.31v1q-2.5.06-5 0l-1-1c-7.02-.85-13.03.12-19 4a39 39 0 0 0-5 6l-2-1q1.54-1.92 3.13-3.81l1.75-2.15c4.61-4.44 8.9-5.44 15.18-5.35"/><path fill="#cef7fb" d="m213 1139 2 1-1.97 3.29-2.53 4.33-1.3 2.17c-2.43 4.19-3.95 7.22-3.2 12.21a31 31 0 0 0 4 6c-3.16-1.37-4-1.99-6-5-.53-6.2.56-10.31 3-16h2v-4h2v-2h2z"/><path fill="#c8f3f3" d="m494 1091 2 1c-5.21 5.4-12.74 6.74-20 7.18q-3.5.02-7-.18v-1l3.44-.77 4.56-1.04 2.25-.5c3.86-.89 7.5-1.93 11.19-3.39z"/><path fill="#1d7ba9" d="M521 1012c2 2 2 2 2.27 5.09-.07 16.04-.07 16.04-2.27 22.91l-2 1c-.12-7.52-.12-7.52.49-9.88.5-2.12.71-4.06.83-6.23l.12-2.28.12-2.36.13-2.4z"/><path fill="#2f72b7" d="m553 896 3 1a32 32 0 0 1 2 5l-1.72.52A61 61 0 0 0 542 909v-3h3v-3l3.44-1.25c3.65-1.32 3.65-1.32 4.5-3.94z"/><path fill="#d4f0fb" d="m510 838 2 2-2 1-2.25-.75c-2.68-.53-2.68-.53-4.34.8Q501.18 843 499 845h-2v8l-2-2c.08-4.7.38-7.07 3-11 3.95-2.63 7.35-2.87 12-2"/><path fill="#37a0a8" d="m384 1234 3 1-2.37 3.88-1.34 2.17C382 1243 382 1243 380 1245c-2.15.23-2.15.23-4.79.2l-2.85-.02-2.99-.06-3-.02-7.37-.1v-1l20-1 1-4h2z"/><path fill="#ccf4f9" d="M404 1026h1l.73 3.44c2.65 12.69 2.65 12.69 9.08 23.81L416 1055c-.43 2.11-.43 2.11-1 4a65 65 0 0 1-8.87-18.19l-.66-2.01A37 37 0 0 1 404 1026"/><path fill="#1868b5" d="M396 987c1.56 4.7-1.01 8.67-2.87 13.05-1.84 4.54-2.23 7.99-2.13 12.95l-2 2q-.12-3.62-.19-7.25l-.07-2.07c-.07-4.33.38-6.47 3.26-9.68q1.15-2.34 2.19-4.75l1.04-2.42z"/><path fill="#1062c6" d="m227 891 2 1-11 11c.55-3.87 2.28-5.6 5.06-8.25l2.22-2.14zm-12 13 2 1-1.43 1.28c-4.22 3.99-6.66 7.23-8.57 12.72h-1c-.4-3.82-.42-5.46 1.97-8.55l2.53-2.33 2.53-2.36z"/><path fill="#216ac0" d="M243 881c-3 2-3 2-5.37 3.31-2.79 1.64-2.79 1.64-5.13 4.38-2.5 2.31-2.5 2.31-5.31 2.62L225 891c5.03-6.51 9.25-10.62 18-10"/><path fill="#1264c7" d="M357 891a56 56 0 0 1-17 5.56l-4.19.76-3.81.68-5 1c4.35-4.2 8.26-4.98 14-6l2.6-.56c4.54-.99 8.72-1.69 13.4-1.44"/><path fill="#def6fd" d="M425.38 873.88c2.95.91 5.81 1.8 8.62 3.12v2l-2.56-1.06c-3.98-1.09-6.45-.9-10.44.06-2.2 1.49-2.2 1.49-4 3h-3v2l-4-1c10.4-8.74 10.4-8.74 15.38-8.12"/><path fill="#d5f8fa" d="m535 1067 3.56 1.12c4.35 1.13 7.16.2 11.44-1.12 2.38.62 2.38.62 4 2a13 13 0 0 1 1 4l-1.69-1c-2.66-1.15-4.43-1.3-7.31-1l-2 2c-3.28-.11-4.3-1.28-6.75-3.56z"/><path fill="#d4f7fa" d="m466 993 3 1-1.32 1.27a49 49 0 0 0-4.5 5.48 197 197 0 0 1-6.37 8.19l-1.42 1.71C454 1012 454 1012 451 1013v-4a196 196 0 0 1 5-3c1.64-2.46 1.64-2.46 3-5 1.56-1.81 1.56-1.81 3-3h2z"/><path fill="#e3f8fd" d="m430 972 2 1-4.19 4.75-2.35 2.67A61 61 0 0 1 418 987l-1-3 6.64-6.74A55 55 0 0 1 430 972"/><path fill="#2b6caa" d="m245 969 2 1-1.65 3.4c-5.3 11.05-5.3 11.05-9.35 22.6-1.67-4.08-.2-6.91 1.31-10.87l1.37-3.62L240 978l1.07-3.33A10.6 10.6 0 0 1 245 969"/><path fill="#3192a7" d="M518 1037h1v8h-2l-.25 2.56c-.93 4.28-2.27 6.83-4.75 10.44-2.14.7-2.14.7-4 1l1.68-3.04 2.2-4.02 1.1-1.99A53 53 0 0 0 518 1037"/><path fill="#c1eef5" d="m430 995 3 1-1.71.8c-2.96 1.85-4.42 3.2-6.29 6.2-1.37 6.86-1.13 14.03-1 21h-1l-1-23h3v-2h2v-2z"/><path fill="#256ab3" d="M319 963c2.1 3.14 3.1 5.86 4.25 9.44l1.14 3.43c.61 3.13.61 3.13-.28 5.54L323 983v-4h-2c-1.87-5.49-2.24-10.22-2-16"/><path fill="#2a6eb0" d="M559 907c8.14-.54 14.26-.08 20.6 5.38A73 73 0 0 1 583 916l-1 3-2.25-2.37A22 22 0 0 0 573 912l-1-2c-3.04-.7-3.04-.7-6.56-1.12l-3.63-.51L559 908z"/><path fill="#d6f3fd" d="M437 887a19 19 0 0 1 3 4c-.22 2.16-.22 2.16-1.06 4.5l-.9 2.62L437 901l-2.19 6.63L433 913h-1c-.46-4.3.4-7.37 1.94-11.31A47 47 0 0 0 437 887"/><path fill="#ddf7fc" d="m531 981 2 1-1.12 1.66c-1.22 3.23-.34 4.64 1 7.78 1.57 3.74 2.37 6.49 2.12 10.56-2.27-3.4-3.55-6.82-5-10.62-1-2.58-1-2.58-3-5.38.19-2.12.19-2.12 1-4z"/><path fill="#d1ebf8" d="M360 961h1c-.35 6.65-.96 12.04-4 18l-1.19 2.44L355 983l-2-1a278 278 0 0 1 7-21"/><path fill="#407ab8" d="m489 865 2.13.88c5.66 2.21 10.1 3.36 16.25 3.25l3.77-.06L514 869c-2.96 2.96-5.67 3.2-9.69 3.31-5.13-.04-9.15-1.26-13.31-4.31z"/><path fill="#d2eefa" d="m526 859 6 2-1 2q-1.42.45-2.87.94c-3.16 1.07-3.93 1.76-6.13 4.06-5.27 3.14-5.27 3.14-8.2 2.58L512 870l3.63-1.56c4.6-2.27 7.35-5.37 10.37-9.44"/><path fill="#cff9fa" d="m330 1239 1.63 1.45c2.89 1.89 4.8 2.05 8.23 2.28l3.38.24 3.51.22 3.56.25q4.35.3 8.69.56v1q-6.12.08-12.25.12l-3.51.06-3.38.02-3.11.03A13.6 13.6 0 0 1 330 1243z"/><path fill="#caf5f7" d="m569 1084 6 2v2l2.38.94A43 43 0 0 1 582 1091v2h2v2l2.94.75L590 1097c.7 2.08.7 2.08 1 4a224 224 0 0 1-16.06-11.31l-1.77-1.35q-2.11-1.64-4.17-3.34z"/><path fill="#d7f8fb" d="m307 1066-8.87 5.5-2.56 1.59-2.44 1.5-2.25 1.4C289 1077 289 1077 287 1077v-3c2.65-1.46 3.9-2 7-2v-2h3v-2c6.63-3.12 6.63-3.12 10-2"/><path fill="#d5f0fb" d="M213 903c-1.17 3.04-2.75 4.74-5.12 6.88-2.4 2.3-2.84 2.8-3.32 6.25.36 2.35.74 4.6 1.44 6.87h-2c-1.26-2.52-1.1-4.31-1.06-7.12l.03-2.76.03-2.12h2l.31-1.94.69-2.06 3-1v-2c2-1 2-1 4-1"/><path fill="#2d82a9" d="M388 1033h2l.38 2.31q.53 3.2 1.17 6.4l.57 2.91.57 2.79c.3 2.56.12 4.18-.69 6.59-2.38-6.64-4.6-12.92-5-20z"/><path fill="#f6f5d0" d="M376 1095c4.88-.35 7.77.58 12 3v3l-4.37-1.44-2.47-.81C379 1098 379 1098 377 1097l2 5-3-1z"/><path fill="#3c87b0" d="M230 1054h1l1.44 8.5.4 2.4q1.27 7.52 2.16 15.1h-2c-2.23-5.45-2.43-10.58-2.62-16.38l-.12-2.8q-.15-3.42-.26-6.82"/><path fill="#e3fbfe" d="M535 1002c3.67 4.31 4.13 8.32 4.1 13.86l-.01 2.69-.03 2.76-.01 2.82-.05 6.87h-1l-.15-2.68a140 140 0 0 0-2.45-20.02c-.4-2.3-.4-2.3-.4-6.3"/><path fill="#c4e9ef" d="m447 981 9 1v11h-3l-.3-2.12-.45-2.75-.42-2.75c-.7-2.9-.7-2.9-4.83-4.38"/><path fill="#c6e6f6" d="M579 912c1.94.31 1.94.31 4 1l1 3h2c2.36 4.63 2.24 8.75 2.13 13.81l-.03 2.4-.1 5.79-2 1 .18-3.22c.31-8.25.5-14.26-5.18-20.78z"/><path fill="#d7f3fe" d="m322 862-24 9 2-4h5v-2q3.12-1.05 6.25-2.06l3.52-1.16C318 861 318 861 322 862"/><path fill="#2f72bb" d="M469 844v2c-6.48 2.63-12.02 3.4-19 3v-1l9.32-2.58A34 34 0 0 1 469 844"/><path fill="#c2f4f5" d="m320 1213 4 1 2.06 8.25.6 2.36.56 2.28.53 2.1c.28 2.26-.07 3.85-.75 6.01-1.86-2.79-2.31-3.81-2.78-6.94l-.37-2.27-.7-4.72c-.6-4.49-.6-4.49-3.15-8.07"/><path fill="#c6f3f3" d="M609 1137c0 3 0 3-2.31 5.69-4.35 3.5-9.4 2.73-14.69 2.31l-2-4 3 1c5.43.53 9.55.5 14-3z"/><path fill="#ccf5f6" d="m524 1080 3.94 2.81 2.21 1.58C532 1086 532 1086 533 1089q-.41 3.01-1 6h-2v-8l-2.44-.69L525 1085c-.81-2.62-.81-2.62-1-5"/><path fill="#cbf6f7" d="M466.38 1045.38c4.1.97 6.65 3.74 9.62 6.62l-3 1-3-2v-2h-6l-1 2h-3l-1 2c0-3 0-3 2.19-5.19 2.81-1.81 2.81-1.81 5.19-2.43"/><path fill="#1f8d95" d="M332 1124c1.04 3.24.92 5.46.22 8.77l-.55 2.69-.6 2.79-.6 2.84q-.72 3.45-1.47 6.91h-1c-.5-8.64 1.29-15.85 4-24"/><path fill="#d6f7fb" d="m277 1113 14 14-4 1-1.62-2.06q-1.93-2.41-3.98-4.73l-1.65-1.83-1.58-1.73C277 1116 277 1116 277 1113"/><path fill="#d4fafb" d="M536 1099c5.67 3.58 10.8 7.77 16 12l-3 1c-2.04-1.14-2.04-1.14-4.19-2.81l-2.16-1.65L541 1106v-2l-1.94-.81C537 1102 537 1102 536 1099"/><path fill="#2e73b1" d="M195 1004c-1 2-1 2-3.31 3.06-5.18 1.32-10.37 1.61-15.69 1.94 3.33-2.22 6.22-3.09 10.06-4.19l3.79-1.1c3.15-.71 3.15-.71 5.15.29"/><path fill="#3d9b9d" d="m466.19 1042.38 1.81.62v3l-2.25.88L463 1048l-2.25.88c-1.95 1-1.95 1-2.5 3.25L458 1054l-1-3 1-2h2l.31-2.37c.9-3.41 2.23-4.88 5.88-4.25"/><path fill="#e0fdfe" d="m448 995 2 1-1.81 1.69c-2.2 2.32-3.56 4.57-5.19 7.31-1.61 2.05-3.3 4.02-5 6l-1-3c2.81-5.15 6.77-8.98 11-13"/><path fill="#24819f" d="M447 982c2.44.38 2.44.38 5 1 1.6 3.22 1.06 6.44 1 10l-7 4 1-4 4-1v-6l-6-1z"/><path fill="#1c96a1" d="M475 1135c4.26.2 6.43 1.08 9.38 4.06L487 1142l-1 3q-1.76-1.43-3.5-2.88l-1.97-1.61L479 1139v-2a29 29 0 0 0-8 3z"/><path fill="#d1f9f9" d="m416 1084 2.09 1.17A182 182 0 0 0 436 1094c-1.56.7-1.56.7-4 1a67 67 0 0 1-7.12-3.19l-1.92-.92c-2.78-1.41-4.7-2.47-6.39-5.13z"/><path fill="#d5fafc" d="m444 982 3 1-5.87 6-1.69 1.73A145 145 0 0 1 435 995h-2v-2h2l.77-1.77c1.35-2.44 2.85-4.05 4.86-5.98l1.9-1.86z"/><path fill="#c9f7f8" d="M410 1174c-2.71 2.71-5.61 2.94-9.25 3.63l-1.99.4a51 51 0 0 1-11.76.97v-1l9-1v-2c9.41-1.15 9.41-1.15 14-1"/><path fill="#d6f9fb" d="M263 1131c1.94.31 1.94.31 4 1l1 3h3v3h2a106 106 0 0 1 4 5l-1 2a76 76 0 0 1-13-13z"/><path fill="#3099a6" d="M522 1074v4l-5-3-6 5-1-4c4.47-2.66 6.93-3.33 12-2"/><path fill="#ceeef4" d="M333 1051q.05 2.4.06 4.81l.04 2.71c-.1 2.48-.1 2.48-1.1 5.48h-2l.68-6.74c.32-2.26.32-2.26 1.32-5.26l-7 3v-3c2.93-.98 4.96-1.08 8-1"/><path fill="#d3eff9" d="m406 968 3 1-1.4 1.32c-3.76 3.66-6.86 7.19-9.6 11.68l-1-4h2l.69-2.19c1.56-3.34 3.61-5.33 6.31-7.81"/><path fill="#3a72ad" d="m341 922-2.15.84-2.79 1.1-2.77 1.09c-2.21.77-2.21.77-3.29 1.97q-.55 3.5-1 7c-1.65-2.98-2.39-5.66-3-9q2.63-1.05 5.25-2.06l2.95-1.16c2.84-.8 4.1-.8 6.8.22"/><path fill="#216dc0" d="M429 854c3.72-.2 4.77-.15 8 2 .51 2.6.51 2.6.69 5.63l.2 3.03.11 2.34-2 1-2-2 1-1c.25-2.96.25-2.96 0-6-2.36-2.36-3.78-2.5-7-3z"/><path fill="#35a1a9" d="M406 1215c-3.12 1.79-5.68 2.34-9.25 2.62l-2.7.23-2.05.15-1 6c-.85-2.39-1.1-3.67-.37-6.13 3.87-5.27 9.68-3.79 15.37-2.87"/><path fill="#f6f5c9" d="M389 1101c5.64-.35 9.11.36 14 3l1 3c-10.56-3.08-10.56-3.08-15-5z"/><path fill="#cdf5f5" d="m458 1054 1 4c-2.76 1.38-5.05 1.1-8.12 1.06l-3.32-.02-2.56-.04-1-4 2 1q2.8.34 5.63.56l3.03.26 2.34.18z"/><path fill="#458eb4" d="M403 1015h1l.18 3.69.26 4.87.12 2.43A133 133 0 0 0 406 1040l-2 1c-1.3-2.61-1.11-4.53-1.1-7.45l.01-3.26.03-3.41.01-3.45z"/><path fill="#d7f1fb" d="M253 958c1 2 1 2 .33 4.24l-1.08 2.63-1.05 2.62A27 27 0 0 1 247 974h-2c1.57-5.97 4.75-10.83 8-16"/><path fill="#337ab3" d="m553 921 3 1-1.5 1.5c-2.07 3.45-1.96 6.62-1.5 10.5.74 2.86.74 2.86 2 5l2 1c-1.87-.31-1.87-.31-4-1-2.39-3.58-2.27-5.31-2.25-9.56l-.02-3.5C551 923 551 923 553 921"/><path fill="#d6f1fc" d="m492 826 3 1-1.64 1.32c-4.26 3.54-7.3 6.4-9.36 11.68h-1v-5h2l.31-1.81c1.17-3.71 3.51-5.07 6.69-7.19"/><path fill="#ddfcfc" d="M611 1117c1.94.38 1.94.38 4 1 1.23 2.45 1.2 4.2 1.25 6.94l.08 2.65c-.39 2.83-1.14 3.66-3.33 5.41l.07-2.48.05-3.27.08-3.23a13 13 0 0 0-2.2-7.02"/><path fill="#dcf8fc" d="M232 1061a44 44 0 0 1 5 16l-3-1a40 40 0 0 1-2-15"/><path fill="#d6f2fa" d="M300 1019c5.24-.31 8.53.19 13 3l2 3c-10.56-3.08-10.56-3.08-15-5z"/><path fill="#252d42" d="m804 1007 3 1-10 10-2-2z"/><path fill="#cfedf9" d="M470 867v2c-5.78 2.01-10.9 2.22-17 2 2.94-1.96 4.55-2.48 7.94-3.12l2.59-.51C466 867 466 867 470 867"/><path fill="#ccf8f8" d="M510 1163h4v3l3 1c2 5.14 2.2 9.52 2 15h-1l-.4-2.27-.54-2.98-.52-2.95c-.63-3.44-.63-3.44-1.54-6.8-1.97-1.15-1.97-1.15-4-2z"/><path fill="#f5f4c9" d="M421 1146v2h-2l-1 3c-3.21 1.61-6.44 1.06-10 1a66 66 0 0 1 7.06-4.12l2.1-1.08c1.84-.8 1.84-.8 3.84-.8"/><path fill="#f6f5c7" d="M404 1107c6.92-.61 9.67.56 15 5-2 1-2 1-5.04 0l-3.58-1.44-3.6-1.43L404 1108z"/><path fill="#d6f9fa" d="M350 1085h3a29 29 0 0 1 3.25 4.81l1.64 2.71C359 1095 359 1095 358 1098c-3.51-4.01-5.76-8.21-8-13"/><path fill="#c4eef5" d="M329 1064c1.2 3.55.86 6.33.25 10l-.48 3.12A15 15 0 0 1 325 1084c.66-6.86 2.24-13.34 4-20"/><path fill="#36989c" d="M486 1037c3.3 2.81 5.06 6.18 7 10v4l-4-1 1-5h-2z"/><path fill="#1484a8" d="M450 985a64 64 0 0 1-9 8c-.22-2.74-.35-4.44 1.13-6.81 2.64-1.68 4.8-1.4 7.87-1.19"/><path fill="#1864b4" d="M249 959h1c-.75 6.63-.75 6.63-3 10h-2l-1 3c-1-3-1-3-.06-5.19L245 965h2l.44-2.44C248 960 248 960 249 959"/><path fill="#d7f1fb" d="m296 916 2 1c-3.37 3.67-6.37 6.09-11 8h-3l4.31-3.37 2.43-1.9q2.56-1.95 5.26-3.73"/><path fill="#2c6fb9" d="M496 840h2l-1.06 2.56c-1.09 3.98-.9 6.45.06 10.44 1.43 2.38 1.43 2.38 3 4-1.87-.31-1.87-.31-4-1-2.24-3.36-2.27-4.62-2.25-8.56l-.02-2.94c.27-2.5.27-2.5 2.27-4.5"/><path fill="#d0f9fb" d="m210 1168 12 12-3 1-1.69-2.19c-2.27-2.88-2.27-2.88-5.06-5.43C210 1171 210 1171 210 1168"/><path fill="#2779ac" d="M534 1006h2v18h-1l-.18-1.98a142 142 0 0 0-1.45-11.52c-.37-2.5-.37-2.5.63-4.5"/><path fill="#dcfafe" d="M498 977c3.62 1.5 5.69 3.58 8.25 6.5l2.14 2.4C510 988 510 988 510 990c-3-1-3-1-3.96-2.87L505 985c-1.7-1.66-1.7-1.66-3.62-3.12-1.92-1.51-1.92-1.51-3.38-2.88z"/><path fill="#286ba7" d="M536 940v6l-1-3-1.6 1.46-2.15 1.91-2.1 1.9A26 26 0 0 1 523 952c10.06-12 10.06-12 13-12"/><path fill="#3173b7" d="M473 865c-2.92 1.95-4.58 2.51-7.94 3.19l-2.59.54A14 14 0 0 1 456 868c5.82-3.04 10.48-3.35 17-3"/><path fill="#2f70b7" d="M522 860h3c-1.6 4.3-4.4 6.35-8 9h-3l1-3h4q.45-.93.94-1.87z"/><path fill="#d9f4fe" d="M473 842c-3.59 2.08-7.2 2.8-11.25 3.63l-3.83.78-2.92.59v-2c5.73-2.69 11.73-3.2 18-3"/><path fill="#a7a234" d="m441 1133-11 8-1-2h2l1-3h3v-3c3-1 3-1 6 0"/><path fill="#36a0a5" d="m610 1119 4 2v10l-3-1z"/><path fill="#208f95" d="M465 1034h3c2.6 3.37 3.36 5.77 3 10l-5 1 2-3h2l-1.1-1.5-1.4-1.94-1.4-1.93C465 1035 465 1035 465 1034"/><path fill="#d2f2fb" d="m560.94 918.6 2.06.02 2.06-.02c1.94.4 1.94.4 4.94 3.4h-14c3-3 3-3 4.94-3.4"/><path fill="#38a1aa" d="m424 1169 1 3c-3.27 1.91-6 2.36-9.75 2.62l-2.98.23-2.27.15a36 36 0 0 1 8.69-4.12l3-1.08z"/><path fill="#c5e7f3" d="M407 1001c1.14 3.4.84 5.77.06 9.25l-.59 2.7-.47 2.05-2-1c.48-4.71.97-8.67 3-13"/><path fill="#cfeef8" d="M236 993h1c.23 5.42-.53 9.77-2 15h-2c.44-5.27 1.08-10.02 3-15"/><path fill="#2767ad" d="m303 938 1 3h-2v2h-3v2h-2v2l-4-1z"/><path fill="#c1dff0" d="M237 879c6.52-.35 11.18-.04 17 3l-1 2-1.72-.62A62 62 0 0 0 237 880z"/><path fill="#d3effb" d="m403 870 3 1a41 41 0 0 1-7 6c-.74 3.57-.74 3.57-1 7h-1v-9h2v-2l4-1z"/><path fill="#def8fe" d="M417 857c.68 1.8.68 1.8 1 4-1.14 1.7-1.14 1.7-2.81 3.25l-1.65 1.58C412 867 412 867 410 867c.47-4.25 2.96-6.2 6-9z"/><path fill="#d1f8fa" d="m296 1159 4.81 1.38 2.71.77c2.48.85 2.48.85 5.48 2.85v2c-4.83-1.41-8.72-3.43-13-6z"/><path fill="#d0f7fa" d="M211 1125c4.95 5.94 4.95 5.94 6 9-.37 2.75-.37 2.75-1 5h-1l-.87-3.38c-.82-3.62-.82-3.62-3.13-5.62-.12-2.62-.12-2.62 0-5"/><path fill="#d2f8f8" d="M372 1121h3c2.43 2.98 3.91 5 4.25 8.88L379 1132a46 46 0 0 1-7-11"/><path fill="#d0f8f8" d="m505 1084 2 1c-6 6-6 6-8.56 6.06L496 1091q4.42-3.6 9-7"/><path fill="#278595" d="M343 1075a14 14 0 0 1 3 3c-.1 3-1.02 4.02-3.06 6.25L341 1086c.88-7.62.88-7.62 2-11"/><path fill="#c2f4f5" d="M464 1034c4.88 4.62 4.88 4.62 6 8l-7 1v-2h2z"/><path fill="#d5f2fa" d="M330 1034c-1 3-1 3-3 4.2l-2.44 1.05-2.43 1.08c-2.13.67-2.13.67-4.13-.33l4.88-3 2.74-1.69C328 1034 328 1034 330 1034"/><path fill="#cbeefb" d="m576 951 2 1c-5.42 4.94-5.42 4.94-9.91 5.1q-4.08-.37-8.09-1.1v-1l1.98-.11c5.4-.41 9.2-1.24 14.02-3.89"/><path fill="#c8e5f6" d="M369 935h1a27 27 0 0 1 1 6c-1.37 2.06-1.37 2.06-3 4-.71 2.65-.71 2.65-1 5l-2-1 1.44-5.31.8-3q.81-2.85 1.76-5.69"/><path fill="#488cbd" d="M573 934c1 3 1 3 0 6-4.8 2.64-7.54 3.46-13 2v-1l3.69-.12c3.52-.41 5.06-1.19 7.31-3.94z"/><path fill="#d1effb" d="M253 884c5.41.47 9.2 1.24 14 4l-1 2a42 42 0 0 1-8.75-3.06L253 885z"/><path fill="#d3f3fc" d="m497 854 2.06.94c3.31 1.2 6.45 1.65 9.94 2.06v-2l5-1c-1.76 2.44-3.12 3.83-6.13 4.4-4.06.17-6.16.16-9.43-2.4z"/><path fill="#daf5fe" d="m329 833 3 1-.8 1.5A60 60 0 0 0 326 849h-1c.59-5.7 1.4-10.8 4-16"/><path fill="#408e9e" d="M312 1130h2l-2 10c-4 0-4 0-5.75-1.5L305 1137l6 1z"/><path fill="#cff1f9" d="M515 999c2.88 4.31 4 7.81 4 13h-2c-1.76-4.5-2.2-8.18-2-13"/><path fill="#d4f1fb" d="M416 985c1 2 1 2 .31 4.38-1.4 2.8-2.99 4.53-5.31 6.62l-1-2z"/><path fill="#2b62a4" d="m312 934 1 9-2-2v-4l-6 1c3.63-4 3.63-4 7-4"/><path fill="#2867ae" d="m300 911 4 1-11 7c0-3 0-3 1.25-4.69C296 913 296 913 300 913z"/><path fill="#266fbd" d="M415 877c-1.39 3.36-2.92 5.07-6 7h-2v-3c4.23-4 4.23-4 8-4"/><path fill="#c5e8f9" d="m453 872-4 2v7c-2.15-2.62-3.4-4.64-4-8 3.07-1.86 4.6-2.22 8-1"/><path fill="#d1f9f9" d="m493 1203 1 2c-2.23 3.35-3.26 4.82-7.25 5.81l-2.75.19a64 64 0 0 1 9-8"/><path fill="#f6f5c6" d="M432 1140c-1.04 2.82-1.7 3.83-4.37 5.31-2.8.73-3.94.49-6.63-.31l4.38-2.5 2.46-1.41C430 1140 430 1140 432 1140"/><path fill="#318ea4" d="M316 1111c2 3 2 3 1.54 6.36l-.92 3.83-.9 3.85-.72 2.96h-1l.44-7.38.12-2.11c.33-5.28.33-5.28 1.44-7.51"/><path fill="#c8f6f9" d="M529 1056h1l.81 2.81c1.1 2.95 1.81 4.25 4.19 6.19l-1 2-7-6z"/><path fill="#d1f6f8" d="M427 1039q1.98 1.43 3.94 2.88l2.21 1.61C435 1045 435 1045 436 1047a20 20 0 0 1-9-4z"/><path fill="#2d6da7" d="M175 1009c-1.25 3.75-2.56 4.24-6 6h-2v2h-2c1.51-4.24 5.3-8 10-8"/><path fill="#cefafc" d="m517 1074 7 5-3 1-2-2c-1.98.35-1.98.35-4 1h-3z"/><path fill="#2c6ea5" d="m543 953 9 5-4 4v-5l-5-2z"/><path fill="#2e6eb1" d="M312 904h6c-3.83 3.33-8.37 5.05-13 7v-2l2.94-1.37c3.13-1.29 3.13-1.29 4.06-3.63"/><path fill="#1062cc" d="m336.6 833.8 3.02.08 3.04.05 2.34.07v1l-1.8.08c-5.27.38-8.3 1.03-12.2 4.92.76-3.8 1.36-5.88 5.6-6.2"/><path fill="#dbfcfd" d="M341 1176c4.82-.19 8.5.24 13 2v1c-4.92.17-8.5.25-13-2z"/><path fill="#328aa1" d="M294 1129a41 41 0 0 1 11 6v2c-4.6-1.49-7.47-3.8-11-7z"/><path fill="#21899b" d="m403 1068 7 7-1 3c-3.54-3.17-5.59-5.17-6-10"/><path fill="#c2f2f4" d="m420 1064 4 1v2l1.75.75c2.55 1.42 4.27 3.13 6.25 5.25-4.9-1.49-8.4-4.45-12-8z"/><path fill="#3577a4" d="m165 1058 2 3 2.5 2.5c2.5 2.5 2.5 2.5 4.5 5.5-3.9-1.3-6.46-2.71-9-6-.25-2.75-.25-2.75 0-5"/><path fill="#3a92a3" d="m452 1012 3 2-2.94 1.56c-3.41 2.2-3.41 2.2-3.94 6.19L448 1025h-1c-.62-7.26-.62-7.26 2.5-11z"/><path fill="#d3effa" d="m205 961 2 1-5 12c-1.31-3.94-.24-6.12 1-10h2z"/><path fill="#d6eff9" d="M306 933h6c-3.46 2.76-7.14 4.85-11 7v-3h3v-2h2z"/><path fill="#d4effb" d="M544 881h3a19 19 0 0 1 2.75 3.81l1.36 2.15C552 889 552 889 551 892z"/><path fill="#cff0fc" d="M421 874c4.74.4 8.66.97 13 3v2l-5.87-1.44-3.31-.8C422 876 422 876 420 875z"/><path fill="#ccf8fc" d="M264 1185c4.88 1.75 4.88 1.75 6 4h-11z"/><path fill="#ccf4f9" d="M248 1110h3c3.22 5.18 3.22 5.18 4 7l-1 3z"/><path fill="#d1f9fa" d="m448 1013 3 1-1.46 1.21c-1.91 2.22-2.02 3.58-2.23 6.48l-.2 2.45-.11 1.86h-1v-12z"/><path fill="#3b73a5" d="m331 1010 3 1 1 5-7-3 3-1z"/><path fill="#d7f8fa" d="M475 1003c0 3.62-.9 5.11-3 8h-3c1.44-3.37 3.33-5.51 6-8"/><path fill="#dcf4fb" d="m258.56 1000.94 2.44.06 1 3-5-1-1 6h-1a197 197 0 0 1 0-7c1-1 1-1 3.56-1.06"/><path fill="#c7eff3" d="M475 986h2c-1.39 3.36-2.92 5.07-6 7h-2v-3c2.44-1.62 2.44-1.62 5-3z"/><path fill="#cbeaf8" d="m286 950 3 1-7 7-1-3h2v-3z"/><path fill="#3e7cb3" d="M583 917c2.83 3.2 3.52 5.78 4 10h-2c-2.1-3.4-2.18-6.05-2-10"/><path fill="#d9f2fa" d="M552 892c1.94.31 1.94.31 4 1l1 3 2 1v5a70 70 0 0 1-7-10"/><path fill="#3d79b2" d="M478 858c3 3.75 3 3.75 3 6l-8 1 1-2h4z"/><path fill="#256dba" d="M484 851a120 120 0 0 1 5 11l-1 3c-2.68-3.08-3.42-5.2-3.69-9.25l-.2-2.7z"/><path fill="#c3f3f5" d="m330 1239 1.5 1.44c3.5 2.18 6.41 2.22 10.5 2.56v1q-2.44.05-4.87.06l-2.75.04c-2.38-.1-2.38-.1-4.38-1.1z"/><path fill="#cff6f8" d="M313 1168c6.75-.12 6.75-.12 9 1v3l-9-3z"/><path fill="#39a1a7" d="M499 1154c3.8 1.49 5.61 3.76 8 7-3.79-.54-5.55-2.12-8-5z"/><path fill="#f7f6c8" d="M381 1106c2.97 2.54 4.36 5.49 6 9-1.87-.12-1.87-.12-4-1-1.17-2.74-2-5.01-2-8"/><path fill="#d3f2f9" d="M294 1055v2h-3v2c-3 2-3 2-5.19 1.62L284 1060l3.88-2.5 2.18-1.41C292 1055 292 1055 294 1055"/><path fill="#328f96" d="M442 1051c1.94.81 1.94.81 4 2l1 3h6v1c-6.36.49-6.36.49-9.44-1.88C442 1053 442 1053 442 1051"/><path fill="#348798" d="m479 998 3 1v2l5 1-1 3c-3.83-1.45-5.12-3.43-7-7"/><path fill="#c6eaf8" d="M570 922c2 1.5 2 1.5 4 4 .36 2.76.19 5.2 0 8-4-7.71-4-7.71-4-12"/><path fill="#2d6eb9" d="M308 867v3c-2.96 1.48-5.74 1.06-9 1 2.57-2.57 5.31-4 9-4"/><path fill="#3aa0ac" d="m309 1208 10 1v3l-10-3z"/><path fill="#cdf8fa" d="M270 1189c4 1.37 6.8 3.26 10 6a21 21 0 0 1-10-4z"/><path fill="#dfffff" d="M498 1150c3.8 1.49 5.61 3.76 8 7l-1 2-3.5-3.94-1.97-2.21C498 1151 498 1151 498 1150"/><path fill="#c6f2f7" d="M277 1145h4v3l5 2v2c-3.82-1.56-6.2-4.04-9-7"/><path fill="#e1fbfc" d="M612 1133c.81 1.62.81 1.62 1 4-1.47 2.25-3.16 4.02-5 6l-2-1 1.31-1.12c2.15-2.39 3.34-4.98 4.69-7.88"/><path fill="#cdf6f6" d="M379 1133h3v3l3 1v5c-2.4-2.88-4.47-5.56-6-9"/><path fill="#caf4f8" d="M277 1113a64 64 0 0 1 8 9 20 20 0 0 1-8-6z"/><path fill="#cef1f5" d="M533 1046h1l-1 9-3 1z"/><path fill="#c1f2f4" d="M466 1013h1c1.13 3.31 2.21 6.59 3 10-4.87-4.75-4.87-4.75-6-7z"/><path fill="#d4f1fa" d="M277 1010c6.52-.37 6.52-.37 8.94 1.5l1.06 1.5c-2 1-2 1-3.94.44l-4.38-1.75-1.68-.69z"/><path fill="#ceebf7" d="m240 982 2 4c-1.33 2.86-2.15 4.57-5 6z"/><path fill="#397cb3" d="M500 976h3c2.19 3 2.19 3 4 6-3 0-3 0-5.19-1.87C500 978 500 978 500 976"/><path fill="#306faf" d="M211 952h1c.36 4.24-.46 6.58-3 10h-2a57 57 0 0 1 4-10"/><path fill="#3f81c9" d="M497 837h11v1l-3.31.38c-3.76.38-3.76.38-6.69 2.62z"/><path fill="#dbfcfc" d="m436 1206 2 1c-2.07 2.8-3.14 3.03-6.69 3.69l-3.31.31c2.69-2.25 4.65-3.88 8-5"/><path fill="#cdf7f7" d="M574 1129c6.88 3.75 6.88 3.75 8 6h-4v-2l-4-1z"/><path fill="#cef7f8" d="m553 1112 8 6-3 1c-2.69-1.75-2.69-1.75-5-4z"/><path fill="#3f9da2" d="M439 1095c7.5-.37 7.5-.37 10 1.5l1 1.5-3.81-.37-2.15-.22C442 1097 442 1097 439 1095"/><path fill="#d2f7f9" d="M399 1067c2.65 2.58 4.94 4.92 7 8h-3v-2l-3-1z"/><path fill="#d3f2fa" d="M315 1025c3.31-.25 3.31-.25 7 0l3 4-10-3z"/><path fill="#258393" d="M448 1018h1v7h3l-1 3h-3z"/><path fill="#d9f5fd" d="m296 1001 10 3v1c-3.95.18-6.6.09-10-2z"/><path fill="#7ab2c6" d="M455 985h1v8h-3v-5h2z"/><path fill="#3297ad" d="m214 1171 4 1 1 5q-2.55-1.92-5-4z"/><path fill="#a29a16" d="m398 1107 7 1v2l3 1c-4.26.36-6.54-.53-10-3z"/><path fill="#333c4d" d="M968 1098c-1 3-1 3-2.81 4.25-2.53.87-3.71.63-6.19-.25 6.75-4 6.75-4 9-4"/><path fill="#407db4" d="M330 1000c1.88 3.27 2.5 6.28 3 10h-2c-1.6-3.21-1.06-6.44-1-10"/><path fill="#246aaf" d="M308 1004c6.15.59 6.15.59 8 1l1 2c-5.54.37-5.54.37-7.87-1.5z"/><path fill="#d4f6fd" d="M510 990c3.1 2.53 3.9 5.23 5 9h-2c-3-6.75-3-6.75-3-9"/><path fill="#1f6fb4" d="M546 957h2c.25 2.81.25 2.81 0 6-2 1.88-2 1.88-4 3l.44-1.69c.59-2.42 1.08-4.86 1.56-7.31"/><path fill="#c3e3f1" d="m523 948 3 1-6 5c.38-2.44.38-2.44 1-5z"/><path fill="#d0ecf8" d="m570 907 8 1 1 4-9-4z"/><path fill="#e3fbff" d="m216 897 3 1q-2.44 2.55-5 5h-2c1.15-2.47 2.05-4.05 4-6"/><path fill="#d3eff9" d="M521 892c2.25 2.69 3.88 4.65 5 8l-3-1v-2h-2z"/><path fill="#2e74bf" d="M435 858h2l1 9-2 1-2-2 1-1q.06-3.5 0-7"/><path fill="#d6f1fc" d="M522 831c4 2 4 2 6 5l-1 4z"/></g><defs><clipPath id="a"><path fill="#fff" d="M0 0h2048v2048H0z"/></clipPath></defs></svg>